<svg width="1413" height="662" viewBox="0 0 1413 662" fill="none" xmlns="http://www.w3.org/2000/svg">
<path d="M557.095 553.652C560.394 550.356 560.394 545.011 557.095 541.715C553.795 538.418 548.446 538.418 545.146 541.715C541.847 545.011 541.847 550.356 545.146 553.652C548.446 556.949 553.795 556.949 557.095 553.652Z" fill="#A980FF" fill-opacity="0.7"/>
<path d="M1211.92 26.9062C1215.22 23.6098 1215.22 18.2652 1211.92 14.9688C1208.62 11.6723 1203.27 11.6723 1199.97 14.9688C1196.67 18.2652 1196.67 23.6098 1199.97 26.9062C1203.27 30.2027 1208.62 30.2027 1211.92 26.9062Z" fill="#A980FF" fill-opacity="0.7"/>
<path d="M813.239 106.899C816.407 103.33 818.737 99.1634 820.174 94.5007C821.578 89.9311 821.798 85.0295 821.831 80.8379C821.84 79.435 821.822 78.0293 821.804 76.6236C821.765 73.7261 821.726 70.7442 821.951 67.8159C822.207 65.674 822.616 63.7525 823.2 61.9855C823.715 60.7519 824.344 59.5562 825.079 58.4179C825.952 57.263 826.936 56.1865 828.013 55.2043C829.176 54.2936 830.413 53.4971 831.71 52.8268C832.968 52.3035 834.275 51.8915 835.607 51.6088C837.052 51.4198 838.522 51.3696 839.992 51.4555C841.445 51.6513 842.87 51.9802 844.252 52.4354C845.648 53.0145 846.973 53.7265 848.2 54.5533C849.686 55.5545 852.053 55.5787 853.625 55.0899C855.375 54.5409 857.035 53.1464 857.757 51.6215C857.773 51.5865 857.791 51.5475 857.807 51.5124C858.632 49.7002 858.774 47.8499 858.209 46.2841L857.496 44.741L857.429 44.6209C856.774 43.6122 855.903 42.8107 854.846 42.2402C850.39 39.2557 844.653 37.5464 838.676 37.4267C833.006 37.3149 827.183 38.9829 822.279 42.1328C817.366 45.283 813.394 49.8031 811.089 54.8561L811.081 54.8716C809.028 59.3807 807.99 64.55 807.819 71.1397C807.768 73.1113 807.794 75.1088 807.821 77.0411C807.858 79.9425 807.899 82.9396 807.673 85.8718C807.414 88.0407 807.003 89.9756 806.423 91.7348C805.843 93.1318 805.126 94.4898 804.288 95.7832C803.257 97.1584 802.08 98.4432 800.785 99.6136C799.35 100.753 797.809 101.74 796.186 102.568C794.623 103.235 793.015 103.74 791.394 104.08C790.479 104.2 789.563 104.271 788.654 104.286C786.88 104.32 784.936 105.213 783.703 106.567C782.484 107.904 781.752 109.914 781.88 111.562C782.185 115.466 785.286 118.35 789.088 118.28C798.046 118.11 807.076 113.856 813.253 106.901L813.239 106.899Z" fill="#FF5649" fill-opacity="0.7"/>
<path d="M872.556 146.579C877.097 145.508 879.91 140.962 878.838 136.425C877.766 131.888 873.216 129.078 868.674 130.148C864.133 131.219 861.32 135.766 862.392 140.303C863.464 144.84 868.014 147.65 872.556 146.579Z" fill="#FF852B" fill-opacity="0.7"/>
<path d="M236.845 193.63C238.631 189.323 236.584 184.386 232.272 182.602C227.961 180.818 223.019 182.863 221.233 187.17C219.448 191.477 221.495 196.415 225.806 198.199C230.117 199.983 235.059 197.937 236.845 193.63Z" fill="#FFABD1" fill-opacity="0.7"/>
<path d="M882.987 421.527C887.593 420.78 890.721 416.444 889.973 411.842C889.225 407.241 884.885 404.116 880.279 404.863C875.673 405.61 872.546 409.946 873.293 414.547C874.041 419.149 878.381 422.274 882.987 421.527Z" fill="#A980FF" fill-opacity="0.7"/>
<path d="M1238.92 144.906C1242.22 141.61 1242.22 136.265 1238.92 132.969C1235.62 129.672 1230.27 129.672 1226.97 132.969C1223.67 136.265 1223.67 141.61 1226.97 144.906C1230.27 148.203 1235.62 148.203 1238.92 144.906Z" fill="#FFC003" fill-opacity="0.7"/>
<path d="M551.135 159.595C555.674 158.515 558.477 153.962 557.396 149.428C556.315 144.893 551.758 142.092 547.219 143.172C542.68 144.253 539.877 148.805 540.958 153.34C542.039 157.875 546.596 160.675 551.135 159.595Z" fill="#FF852B" fill-opacity="0.7"/>
<path d="M12.1351 584.379C16.6743 583.299 19.4774 578.746 18.396 574.211C17.3146 569.677 12.7582 566.876 8.21899 567.956C3.67976 569.037 0.876645 573.589 1.95804 578.124C3.03944 582.659 7.59584 585.459 12.1351 584.379Z" fill="#FF852B" fill-opacity="0.7"/>
<path d="M403.33 136.721C405.962 132.607 407.281 127.934 406.95 123.902C406.495 118.363 403.525 113.843 399.009 111.813C394.867 109.952 389.85 109.893 385.237 111.652C377.251 114.7 370.72 121.993 367.77 131.165C366.809 134.157 366.302 137.277 366.24 140.394C365.684 140.227 365.135 140.044 364.596 139.844C364.46 139.792 364.323 139.74 364.187 139.687C363.901 139.517 363.667 139.393 363.452 139.354C363.326 139.301 363.202 139.246 363.082 139.187C362.325 138.814 361.571 138.399 360.85 137.954C360.187 137.549 359.554 137.104 358.907 136.643C358.816 136.568 358.725 136.499 358.641 136.437C358.572 136.384 358.504 136.332 358.439 136.28C358.111 136.008 357.789 135.73 357.474 135.446C356.337 134.416 355.242 133.245 354.03 131.767L353.754 131.384C353.504 131.038 353.264 130.685 353.026 130.325C352.558 129.615 352.113 128.873 351.701 128.121C351.363 127.503 351.041 126.868 350.742 126.231C350.736 125.995 350.596 125.747 350.359 125.358C350.219 124.995 350.083 124.628 349.956 124.262C349.391 122.637 348.959 120.969 348.669 119.298C348.65 119.177 348.63 119.059 348.611 118.938C348.611 118.566 348.601 118.271 348.517 118.049C348.501 117.931 348.488 117.813 348.478 117.696C348.413 116.839 348.384 115.979 348.393 115.138C348.4 114.442 348.436 113.745 348.494 113.059C348.591 112.856 348.601 112.571 348.601 112.117C348.663 111.741 348.734 111.368 348.809 110.995C349.118 109.507 349.576 107.99 350.248 106.227L350.437 105.809C350.616 105.423 350.801 105.044 350.992 104.667C351.379 103.915 351.801 103.17 352.247 102.454C352.659 101.79 353.108 101.146 353.543 100.537C353.627 100.436 353.702 100.335 353.77 100.243C353.822 100.174 353.871 100.106 353.923 100.044C354.193 99.7132 354.469 99.3895 354.748 99.0723C355.872 97.8002 357.104 96.6132 358.41 95.5406C358.719 95.3378 358.917 95.2037 359.03 95.0631C359.268 94.8898 359.511 94.7198 359.752 94.553C360.457 94.0723 361.181 93.6177 361.903 93.2057C362.64 92.7838 363.397 92.3947 364.154 92.0448L364.817 91.7668C365.1 91.6589 365.382 91.5477 365.665 91.4496C367.228 90.9003 368.878 90.4817 370.564 90.2103C371.851 90.001 373.141 88.8368 373.748 87.7904C374.45 86.5837 374.655 84.9552 374.262 83.7321C373.384 81.0049 370.97 79.6085 367.965 80.0958C351.031 82.8296 337.59 99.0265 338.01 116.201C338.217 124.775 341.544 133.232 347.373 140.014C350.076 143.16 353.393 145.842 356.967 147.774C360.298 149.576 363.901 150.783 367.933 151.44C368.56 153.271 369.356 155.034 370.321 156.695C374.704 164.256 382.309 170.011 390.666 172.091C392.752 172.611 394.948 172.915 397.196 173C397.252 173 397.304 173 397.359 173C398.636 173 399.919 172.434 400.907 171.434C401.924 170.404 402.473 169.056 402.414 167.738C402.284 164.838 400.114 162.653 397.252 162.545C396.826 162.529 396.397 162.506 395.975 162.47C395.867 162.46 395.76 162.451 395.65 162.438C395.575 162.431 395.5 162.421 395.429 162.415C394.587 162.274 393.837 162.117 393.142 161.937C392.323 161.725 391.504 161.466 390.708 161.172C390.581 161.126 390.455 161.077 390.331 161.028C389.977 160.806 389.737 160.665 389.506 160.652C389.395 160.606 389.288 160.56 389.188 160.511C387.813 159.831 386.416 158.971 384.922 157.885L384.519 157.552C384.191 157.274 383.869 156.989 383.557 156.698C382.93 156.113 382.322 155.495 381.757 154.864C381.474 154.547 381.198 154.223 380.929 153.893C380.896 153.844 380.864 153.804 380.838 153.772C380.773 153.687 380.704 153.598 380.682 153.569C380.201 152.899 379.752 152.209 379.343 151.515C384.441 150.73 389.418 148.873 393.743 146.064C397.823 143.415 401.043 140.273 403.314 136.725L403.33 136.721ZM347.883 119.056H347.909C347.909 119.056 347.893 119.056 347.883 119.056ZM363.998 140.413C363.998 140.413 363.969 140.403 363.956 140.397L364.066 140.21C364.057 140.279 364.031 140.345 363.998 140.413ZM390.685 120.171L390.679 120.338C390.666 120.289 390.659 120.233 390.656 120.178C390.666 120.178 390.676 120.174 390.682 120.171H390.685ZM377.563 141.97V141.96C377.563 141.96 377.563 141.967 377.563 141.97ZM390.679 136.414L390.516 136.097C390.611 136.152 390.695 136.237 390.76 136.342C390.731 136.365 390.705 136.391 390.676 136.414H390.679ZM390.234 135.815C389.854 136.012 389.594 136.162 389.47 136.388C389.243 136.548 389.015 136.708 388.785 136.862C388.08 137.333 387.349 137.777 386.605 138.186C385.922 138.562 385.224 138.899 384.512 139.233C384.405 139.275 384.301 139.321 384.204 139.363C384.122 139.399 384.044 139.432 383.966 139.465C383.57 139.619 383.167 139.766 382.764 139.906C381.156 140.459 379.489 140.884 377.81 141.175C377.686 141.195 377.563 141.218 377.442 141.234C377.082 141.237 376.806 141.247 376.591 141.316C376.591 140.381 376.637 139.439 376.731 138.5C376.854 138.059 376.926 137.774 376.877 137.545C376.926 137.28 376.978 137.016 377.036 136.751C377.215 135.907 377.436 135.07 377.689 134.256C377.816 133.844 377.956 133.438 378.102 133.033C378.138 132.928 378.248 132.676 378.339 132.464C378.378 132.372 378.427 132.261 378.463 132.143C378.752 131.518 379.025 130.927 379.34 130.344C379.749 129.586 380.198 128.847 380.669 128.147C380.737 128.046 380.825 127.941 380.912 127.836C381.098 127.611 381.302 127.362 381.439 127.081C381.513 126.986 381.591 126.895 381.669 126.803C382.222 126.146 382.81 125.515 383.411 124.932C383.72 124.635 384.035 124.344 384.35 124.069C384.457 123.974 384.567 123.883 384.678 123.788C385.074 123.569 385.438 123.301 385.789 123.042C386.104 122.813 386.4 122.594 386.702 122.421C386.965 122.271 387.228 122.13 387.495 121.996C387.67 121.95 387.885 121.839 388.19 121.672C388.963 121.381 389.743 121.146 390.51 120.979C390.63 120.953 390.747 120.927 390.867 120.904C391.234 120.913 391.504 120.907 391.706 120.822C391.79 120.812 391.874 120.809 391.959 120.806C392.352 120.796 392.745 120.806 393.125 120.832C393.138 120.832 393.158 120.832 393.184 120.838C393.229 120.845 393.272 120.851 393.294 120.858C393.505 120.9 393.713 120.953 393.915 121.008C394.09 121.152 394.34 121.224 394.633 121.283C394.698 121.325 394.769 121.378 394.838 121.427C394.841 121.427 394.844 121.43 394.847 121.433C394.997 121.59 395.198 121.708 395.4 121.796C395.461 121.855 395.523 121.917 395.582 121.98C395.63 122.032 395.679 122.084 395.728 122.14C395.757 122.172 395.789 122.208 395.819 122.241C395.975 122.503 396.127 122.764 396.277 123.026C396.277 123.032 396.28 123.036 396.283 123.042C396.306 123.111 396.332 123.18 396.352 123.248C396.426 123.49 396.482 123.739 396.537 123.997C396.543 124.105 396.556 124.203 396.569 124.295C396.579 124.367 396.589 124.435 396.592 124.498C396.608 124.88 396.602 125.273 396.579 125.668C396.572 125.743 396.563 125.822 396.553 125.904C396.543 125.979 396.53 126.061 396.524 126.142L396.504 126.24C396.446 126.535 396.387 126.826 396.313 127.117C396.209 127.519 396.088 127.925 395.952 128.324C395.91 128.445 395.867 128.569 395.825 128.687C395.666 128.932 395.559 129.21 395.458 129.458C395.403 129.596 395.354 129.73 395.292 129.844C395.097 130.227 394.883 130.603 394.665 130.966C394.441 131.339 394.204 131.702 393.967 132.042C393.902 132.137 393.83 132.231 393.762 132.326C392.553 133.713 391.397 134.861 390.227 135.825L390.234 135.815Z" fill="#A980FF" fill-opacity="0.7"/>
<path d="M343.157 297.111C344.696 293.677 343.371 289.704 340.144 288.072C331.063 283.487 321.606 279.386 312.437 275.424L308.47 273.706C307.393 273.238 306.319 272.775 305.244 272.312C303.278 271.464 301.218 271.459 299.451 272.291C297.626 273.15 296.279 274.809 295.652 276.961L286.855 307.205L253.567 297.338C252.022 296.88 250.322 297.149 248.779 298.101C247.071 299.152 245.852 300.845 245.528 302.632C243.933 311.348 242.261 320.738 240.807 330.35L240.772 330.587C240.414 332.944 240.047 335.38 239.83 337.808C239.69 339.36 239.715 341.028 240.802 342.709C241.451 343.713 242.444 344.572 243.517 345.113C244.062 345.389 244.634 345.58 245.189 345.669C247.139 345.971 249.331 345.392 250.91 344.153C252.214 343.131 252.975 341.787 253.112 340.254C253.491 335.998 254.219 331.681 254.924 327.502L255.3 325.242C255.954 321.305 256.657 317.199 257.478 312.55L290.023 322.196C291.669 322.684 293.965 322.08 295.147 321.237C296.574 320.22 297.492 318.873 298.04 316.999L306.59 287.598C313.766 290.726 319.997 293.514 325.822 296.201C328.267 297.328 331.098 298.644 333.877 300.049C333.942 300.082 334.011 300.114 334.076 300.147C335.689 300.961 337.649 301.062 339.452 300.421C341.154 299.818 342.47 298.643 343.16 297.106L343.157 297.111Z" fill="#FFC003" fill-opacity="0.7"/>
<path d="M1004.72 431.673C1002.9 431.578 1001.22 430.093 1000.18 428.704C999.053 427.192 998.817 425.212 999.073 423.395C999.325 421.647 1000.61 419.837 1002.04 418.857C1003.74 417.696 1005.38 417.643 1007.35 417.745C1013.2 418.057 1018.84 419.44 1024.32 421.491C1033.72 425 1041.86 431.183 1048.23 438.879C1054.36 446.291 1058.17 455.186 1060.11 464.551C1060.48 466.369 1059.49 468.397 1058.39 469.784C1057.24 471.235 1055.42 471.972 1053.63 472.196C1051.85 472.423 1049.73 471.639 1048.4 470.481C1046.89 469.168 1046.38 467.603 1045.99 465.716C1045.68 464.233 1046.39 467.37 1046.03 465.902C1045.98 465.701 1045.93 465.5 1045.88 465.303C1045.74 464.768 1045.6 464.239 1045.45 463.71C1045.13 462.586 1044.77 461.476 1044.37 460.377C1044 459.343 1043.59 458.324 1043.15 457.317C1042.92 456.813 1042.7 456.313 1042.46 455.819C1042.35 455.58 1041.78 454.461 1042.32 455.518C1042.8 456.458 1042.46 455.788 1042.35 455.594C1041.37 453.779 1040.32 452.012 1039.14 450.312C1038.56 449.464 1037.95 448.639 1037.31 447.825C1037.01 447.446 1036.71 447.076 1036.4 446.704C1036.22 446.492 1035.11 445.21 1035.92 446.135C1036.72 447.039 1035.45 445.64 1035.26 445.448C1034.93 445.102 1034.59 444.759 1034.25 444.42C1033.57 443.746 1032.86 443.09 1032.14 442.46C1031.3 441.726 1030.43 441.023 1029.55 440.345C1029.13 440.027 1028.7 439.716 1028.28 439.409C1028.01 439.219 1026.64 438.276 1027.55 438.897C1028.51 439.553 1027.39 438.806 1027.17 438.673C1026.98 438.554 1026.79 438.435 1026.6 438.32C1026.15 438.048 1025.69 437.783 1025.23 437.526C1024.31 437.013 1023.38 436.523 1022.43 436.065C1021.35 435.543 1020.25 435.056 1019.13 434.614C1018.72 434.448 1018.29 434.285 1017.87 434.131C1017.37 433.945 1015.44 433.476 1017.54 433.995C1015.42 433.472 1013.36 432.804 1011.2 432.41C1009.05 432.017 1006.89 431.774 1004.71 431.659L1004.72 431.673Z" fill="#3F79D5" fill-opacity="0.7"/>
<path d="M444.802 469.087C444.938 467.807 445.073 466.523 445.226 465.243C445.301 464.601 445.39 463.963 445.465 463.321C445.251 465.083 445.415 463.713 445.468 463.353C445.525 462.972 445.582 462.586 445.646 462.205C446.077 459.548 446.64 456.902 447.466 454.338C447.662 453.732 447.873 453.129 448.097 452.53C448.186 452.298 448.311 452.052 448.375 451.817C447.99 453.193 448.122 452.409 448.307 451.992C448.806 450.89 449.361 449.82 449.999 448.796C450.287 448.333 450.59 447.88 450.904 447.438C451.21 447.01 451.897 446.518 450.772 447.584C450.921 447.445 451.057 447.231 451.185 447.078C451.954 446.161 452.788 445.298 453.685 444.506C453.888 444.328 454.099 444.161 454.305 443.982C454.896 443.465 453.062 444.87 454.006 444.211C454.444 443.904 454.879 443.594 455.335 443.312C455.787 443.034 456.25 442.77 456.724 442.527C456.912 442.431 457.105 442.345 457.294 442.249C458.205 441.786 455.858 442.777 457.351 442.242C458.302 441.9 459.267 441.679 460.257 441.493C461.041 441.351 458.636 441.614 459.798 441.572C460.065 441.561 460.332 441.536 460.599 441.529C461.208 441.511 461.81 441.557 462.419 441.582C463.648 441.632 460.948 441.311 462.152 441.54C462.366 441.579 462.579 441.614 462.79 441.661C463.317 441.771 463.84 441.91 464.357 442.067C464.877 442.228 465.372 442.438 465.885 442.613C464.022 441.978 466.091 442.745 466.551 442.991C467.534 443.512 468.478 444.104 469.39 444.738C469.767 445.002 471.27 446.236 469.835 445.031C470.362 445.473 470.903 445.894 471.423 446.343C475.024 449.449 478.08 453.097 481.514 456.374C485.543 460.215 490.013 463.56 495.281 465.471C500.78 467.468 506.775 466.944 511.986 464.402C516.459 462.219 520.085 458.222 522.603 453.999C525.841 448.568 527.152 442.581 527.925 436.379C528.313 433.259 528.513 430.121 528.765 426.99C528.897 425.357 529.043 423.724 529.236 422.094C529.26 421.873 529.264 421.509 529.335 421.281C529.214 422.172 529.2 422.29 529.293 421.634C529.332 421.363 529.374 421.095 529.417 420.824C529.549 420.015 529.699 419.212 529.862 418.41C530.482 415.397 528.99 411.891 525.749 411.153C522.806 410.483 519.163 412.041 518.5 415.272C517.264 421.291 517.026 427.429 516.449 433.527C516.384 434.204 516.317 434.885 516.238 435.563C516.206 435.834 516.174 436.105 516.142 436.376C515.978 437.806 516.356 435.007 516.135 436.426C515.904 437.906 515.647 439.382 515.298 440.841C515.059 441.843 514.778 442.83 514.443 443.804C514.272 444.307 514.076 444.799 513.888 445.295C513.606 446.033 514.532 443.868 514.048 444.917C513.913 445.205 513.784 445.498 513.645 445.787C513.182 446.746 512.669 447.68 512.103 448.579C511.822 449.025 511.526 449.467 511.22 449.895C510.97 450.244 510.219 451.036 511.384 449.706C511.177 449.941 510.988 450.191 510.785 450.43C510.112 451.211 509.389 451.945 508.613 452.619C508.26 452.926 507.405 453.411 508.858 452.466C508.691 452.573 508.531 452.708 508.37 452.826C507.879 453.176 507.369 453.5 506.842 453.792C506.404 454.035 505.934 454.22 505.499 454.463C507.106 453.561 505.82 454.313 505.218 454.495C504.734 454.641 504.242 454.766 503.744 454.862C503.548 454.902 503.33 454.916 503.138 454.966C505.008 454.495 503.647 454.884 503.063 454.905C502.504 454.927 501.941 454.916 501.382 454.873C501.161 454.855 500.94 454.82 500.72 454.809C502.504 454.902 501.446 454.905 500.976 454.809C499.893 454.591 498.864 454.053 497.795 453.846C498.059 453.957 498.322 454.067 498.582 454.181C498.376 454.092 498.173 453.996 497.97 453.899C497.767 453.803 497.564 453.703 497.361 453.6C496.851 453.34 496.353 453.061 495.865 452.769C495.37 452.473 494.882 452.159 494.404 451.835C494.116 451.639 493.827 451.435 493.546 451.232C493.143 450.94 492.588 450.237 493.614 451.303C492.809 450.465 491.765 449.784 490.9 449C489.934 448.122 489.001 447.21 488.086 446.279C484.584 442.72 481.268 439.075 477.308 436.012C472.834 432.553 467.801 430.135 462.091 429.757C456.571 429.394 451.246 431.551 446.946 434.878C441.903 438.779 438.58 444.161 436.468 450.119C434.313 456.192 433.689 462.722 433.016 469.094C432.867 470.503 433.782 472.304 434.744 473.267C435.766 474.29 437.443 475.06 438.911 474.996C442.384 474.839 444.453 472.397 444.802 469.098V469.087Z" fill="#FF5649" fill-opacity="0.7"/>
<path d="M746.448 442.2C743.439 442.369 741.209 444.657 741.14 447.644C740.98 454.825 743.234 462.149 747.493 468.271C748.413 469.596 749.405 470.851 750.462 472.034C746.518 485.853 752.829 501.094 762.247 510.167C768.901 516.575 776.775 520.745 784.469 523.448C784.501 524.391 784.573 525.316 784.685 526.226C785.669 534.165 788.84 541.233 793.853 546.669C796.285 549.307 799.224 551.526 802.349 553.087C802.71 553.266 803.094 553.41 803.491 553.514C805.761 554.11 808.48 553.444 809.719 551.072C810.432 549.705 810.572 548.012 810.097 546.542C809.684 545.269 808.83 544.259 807.693 543.692C806.421 543.057 805.281 542.283 804.078 541.468C804.055 541.448 804.031 541.431 804.008 541.411L803.822 541.256C803.556 541.03 803.294 540.799 803.038 540.562C802.504 540.071 801.974 539.539 801.465 538.981C801.229 538.721 801 538.459 800.773 538.19C800.741 538.15 800.631 538.015 800.518 537.879C800.493 537.852 800.47 537.821 800.446 537.79C800.387 537.703 800.322 537.615 800.261 537.536C800.164 537.408 800.074 537.289 800.049 537.25C799.823 536.925 799.6 536.598 799.387 536.262C798.686 535.169 798.043 533.988 797.419 532.642C797.354 532.309 797.263 531.995 797.067 531.781C796.986 531.565 796.909 531.347 796.831 531.128C796.585 530.42 796.356 529.687 796.159 528.952C795.975 528.267 795.812 527.562 795.674 526.86C795.651 526.734 795.627 526.607 795.604 526.481C798.273 527.015 800.818 527.4 803.168 527.678C809.056 528.367 814.613 528.382 819.685 527.728C827.004 526.783 832.812 524.857 837.446 521.834C843.294 518.018 847.492 512.513 849.588 505.907C851.608 499.535 851.103 492.459 848.208 486.485C845.412 480.726 839.861 476.288 833.315 474.57C833.223 474.545 833.133 474.522 833.04 474.497C826.172 472.782 818.653 473.665 811.872 476.988C806.672 479.533 801.674 483.742 797.414 489.161C793.133 494.602 789.767 500.652 787.397 507.14C786.75 508.917 786.206 510.664 785.774 512.377C785.555 512.174 785.228 512.084 784.879 512.035C784.726 511.97 784.576 511.906 784.424 511.838C782.902 511.173 781.41 510.448 779.984 509.685C778.518 508.9 777.105 508.062 775.778 507.193C775.11 506.756 774.458 506.309 773.845 505.865C773.804 505.833 773.744 505.778 773.672 505.716C773.545 505.605 773.43 505.504 773.322 505.416C773.18 505.283 773.002 505.162 772.817 505.085C772.706 504.996 772.591 504.905 772.481 504.813C771.233 503.791 770.054 502.71 768.971 501.598C768.436 501.047 767.915 500.482 767.423 499.914C767.173 499.625 766.93 499.335 766.688 499.041L766.421 498.709C765.361 497.256 764.477 495.884 763.725 494.512C763.349 493.829 762.986 493.118 762.649 492.392L762.399 491.845C762.35 491.737 762.298 491.649 762.241 491.57C762.21 491.474 762.179 491.377 762.151 491.292C762.105 491.145 762.061 491.003 762.017 490.885C761.438 489.342 760.974 487.773 760.633 486.214C760.549 485.831 760.473 485.447 760.4 485.063L760.343 484.74C760.325 484.282 760.27 483.829 760.219 483.391C760.169 482.974 760.125 482.577 760.107 482.187C760.071 481.416 760.067 480.637 760.096 479.866C760.098 479.859 760.099 479.856 760.097 479.848C761.681 480.752 763.333 481.544 765.041 482.215C771.461 484.736 781.512 485.878 788.716 480.797C792.756 477.947 795.428 473.881 796.052 469.642C796.749 464.909 795.299 460.38 791.968 456.89C786.795 451.469 777.919 449.507 769.877 452.003C764.516 453.668 759.59 457.075 755.963 461.498C755.323 460.481 754.738 459.429 754.226 458.359C754.169 458.238 754.113 458.114 754.06 457.99C753.983 457.811 753.903 457.631 753.818 457.456L753.739 457.258C753.468 456.564 753.223 455.849 753.004 455.133C752.799 454.456 752.615 453.767 752.464 453.087C752.387 452.745 752.315 452.4 752.25 452.054L752.178 451.653C752.178 451.653 752.175 451.624 752.172 451.609C752.163 451.483 752.147 451.355 752.13 451.23C752.11 451.076 752.091 450.933 752.085 450.889C752.049 450.54 752.025 450.186 752.004 449.834C751.963 449.126 751.952 448.387 751.969 447.578C752 446.191 751.391 444.789 750.294 443.73C749.214 442.689 747.819 442.135 746.456 442.212L746.448 442.2ZM797.021 532.863C796.949 532.936 796.854 532.999 796.737 533.039C796.719 532.999 796.698 532.958 796.68 532.918L797.018 532.858L797.021 532.863ZM797.728 510.256C797.916 509.728 798.116 509.207 798.32 508.687C798.447 508.406 798.538 508.196 798.594 508.034C798.692 507.812 798.79 507.586 798.89 507.365C799.464 506.096 800.086 504.833 800.747 503.612C802.015 501.266 803.485 498.973 805.228 496.61L805.336 496.468C805.547 496.205 805.758 495.942 805.975 495.684C806.453 495.102 806.951 494.528 807.454 493.977C808.38 492.957 809.351 491.984 810.33 491.09C810.809 490.653 811.301 490.223 811.795 489.815C811.935 489.7 812.078 489.585 812.222 489.47L812.338 489.377C812.369 489.354 812.4 489.33 812.435 489.307L812.655 489.142C813.753 488.347 814.877 487.627 816.003 487.009C816.542 486.712 817.09 486.431 817.631 486.18C817.752 486.123 817.872 486.07 817.996 486.017C818.036 486 818.079 485.983 818.12 485.962L818.519 485.808C819.684 485.374 820.869 485.034 822.036 484.795C822.227 484.757 822.417 484.722 822.609 484.691C822.668 484.685 822.723 484.675 822.782 484.669C822.852 484.659 822.921 484.649 822.987 484.642C823.888 484.542 824.782 484.486 825.643 484.472C826.387 484.458 827.135 484.481 827.862 484.534C827.98 484.544 828.266 484.587 828.572 484.65L829.346 484.803L829.36 484.75C829.919 484.862 830.475 484.997 831.008 485.151C831.315 485.239 831.619 485.336 831.917 485.44L832.115 485.509C832.364 485.642 832.613 485.771 832.862 485.903C833.685 486.332 834.464 486.738 835.217 487.244C835.414 487.409 835.61 487.581 835.802 487.755C836.239 488.153 836.657 488.585 837.052 489.035C837.088 489.076 837.179 489.189 837.267 489.297C837.305 489.342 837.348 489.396 837.397 489.451C837.438 489.508 837.472 489.556 837.488 489.578C837.821 490.062 838.134 490.569 838.417 491.085C838.551 491.329 838.677 491.578 838.799 491.826L838.838 491.907C838.906 492.095 838.974 492.283 839.045 492.471C839.176 492.821 839.299 493.15 839.399 493.484C839.559 494.022 839.696 494.578 839.804 495.137C839.829 495.257 839.847 495.379 839.867 495.504C839.876 495.553 839.884 495.604 839.892 495.652C839.894 495.674 839.896 495.692 839.897 495.714L839.927 495.98C840.035 497.173 840.037 498.394 839.929 499.612C839.928 499.643 839.923 499.677 839.92 499.716C839.885 499.944 839.85 500.171 839.808 500.398C839.685 501.07 839.525 501.746 839.34 502.412C839.173 503.006 838.977 503.605 838.755 504.195C838.743 504.227 838.731 504.259 838.715 504.291L838.643 504.445C838.535 504.682 838.43 504.917 838.316 505.152C837.737 506.331 837.059 507.455 836.308 508.493C836.307 508.496 836.306 508.5 836.302 508.502L836.168 508.662C836.033 508.824 835.9 508.984 835.762 509.143C835.327 509.641 834.856 510.126 834.368 510.592C833.944 510.994 833.497 511.39 833.034 511.764L832.833 511.906C832.651 512.035 832.47 512.168 832.285 512.293C831.303 512.959 830.237 513.578 829.121 514.131C828.853 514.262 828.585 514.39 828.312 514.513L828.256 514.537C827.967 514.641 827.679 514.753 827.39 514.869C827.085 514.99 826.78 515.112 826.469 515.218C824.078 516.041 821.643 516.517 819.346 516.926C819.265 516.94 819.192 516.949 819.133 516.958C818.825 516.998 818.518 517.031 818.208 517.066C817.534 517.137 816.834 517.201 816.127 517.249C814.893 517.332 813.615 517.382 812.324 517.39C809.956 517.409 807.495 517.297 805.005 517.065C804.456 517.012 803.904 516.956 803.357 516.894L803.202 516.874C802.99 516.847 802.778 516.82 802.566 516.789C800.964 516.563 799.338 516.278 797.739 515.946C797.202 515.833 796.669 515.718 796.134 515.596C796.552 513.844 797.088 512.059 797.732 510.264L797.728 510.256ZM784.678 512.421L784.633 512.785C784.585 512.765 784.54 512.746 784.493 512.723C784.536 512.6 784.602 512.497 784.679 512.418L784.678 512.421ZM772.277 505.605C772.314 505.558 772.356 505.52 772.4 505.485L772.417 505.773C772.361 505.73 772.306 505.683 772.25 505.64C772.26 505.629 772.263 505.616 772.273 505.604L772.277 505.605ZM762.253 492.051C762.223 492.248 762.113 492.464 761.879 492.601C761.879 492.601 761.875 492.6 761.871 492.602C761.842 492.538 761.813 492.474 761.783 492.413L762.253 492.051ZM781.055 472.981C781.055 472.981 781.059 472.964 781.065 472.955L781.074 472.989L781.054 472.984L781.055 472.981ZM781.931 473.126L781.868 472.933C781.913 472.976 781.947 473.038 781.981 473.097C781.964 473.106 781.946 473.12 781.93 473.129L781.931 473.126ZM779.108 461.074C779.105 461.112 779.098 461.152 779.088 461.189L779.081 461.07C779.081 461.07 779.097 461.074 779.107 461.077L779.108 461.074ZM770.832 462.302L770.9 462.599C770.836 462.53 770.784 462.445 770.747 462.343C770.776 462.33 770.804 462.316 770.832 462.302ZM763.935 468.805L764.274 468.391C764.443 468.191 764.61 467.991 764.785 467.796C765.256 467.269 765.754 466.762 766.266 466.284C766.523 466.044 766.784 465.808 767.052 465.581C767.157 465.492 767.262 465.403 767.37 465.315C767.585 465.173 767.795 465.033 768.009 464.891C769.018 464.222 769.971 463.587 771.03 463.076L771.175 463.008C771.485 462.933 771.773 462.85 771.976 462.684C772.015 462.669 772.051 462.654 772.09 462.639C772.777 462.398 773.48 462.19 774.185 462.028C774.517 461.949 774.854 461.882 775.188 461.821C775.195 461.823 775.199 461.82 775.203 461.818C775.225 461.817 775.248 461.812 775.269 461.811C776.005 461.735 776.736 461.7 777.445 461.713C777.643 461.715 777.843 461.722 778.042 461.732C778.27 461.823 778.557 461.835 778.894 461.821C779.572 461.949 780.157 462.096 780.707 462.269C780.845 462.312 780.983 462.366 781.119 462.415C781.219 462.452 781.318 462.493 781.419 462.526C781.429 462.529 781.436 462.531 781.445 462.536C781.517 462.57 781.593 462.604 781.665 462.64C782.283 462.944 782.875 463.294 783.429 463.68C783.455 463.705 783.478 463.725 783.498 463.741C783.747 463.955 783.983 464.176 784.2 464.4C784.332 464.533 784.451 464.674 784.574 464.813C784.587 464.83 784.604 464.845 784.617 464.863C784.65 464.914 784.686 464.966 784.719 465.014C784.766 465.079 784.812 465.148 784.854 465.215C784.958 465.388 785.053 465.565 785.145 465.741C785.167 465.804 785.193 465.867 785.222 465.931C785.238 465.967 785.251 465.999 785.256 466.018C785.315 466.2 785.358 466.385 785.402 466.57C785.402 466.732 785.419 466.896 785.437 467.057C785.444 467.136 785.457 467.211 785.458 467.26C785.457 467.331 785.457 467.398 785.453 467.468C785.389 467.699 785.345 467.907 785.348 468.099C785.338 468.135 785.329 468.168 785.32 468.204C785.262 468.426 785.189 468.648 785.112 468.875C785.075 468.947 785.039 469.019 785.005 469.092C784.959 469.189 784.912 469.286 784.859 469.379C784.75 469.58 784.625 469.77 784.5 469.964C784.428 470.076 784.357 470.185 784.289 470.298C784.256 470.339 784.229 470.378 784.194 470.415C783.951 470.694 783.697 470.957 783.443 471.198C783.344 471.292 783.24 471.389 783.135 471.481C782.832 471.621 782.409 471.885 781.726 472.311C781.49 472.458 781.29 472.583 781.202 472.634L780.952 472.724C780.562 472.862 780.142 472.989 779.705 473.101C779.337 473.195 778.953 473.282 778.566 473.354C778.525 473.361 778.48 473.37 778.435 473.38C778.384 473.384 778.337 473.389 778.297 473.393C777.478 473.475 776.629 473.511 775.772 473.495C775.374 473.486 774.975 473.469 774.575 473.442C774.481 473.435 774.384 473.427 774.291 473.417C774.221 473.413 774.149 473.405 774.079 473.4C773.822 473.354 773.567 473.312 773.308 473.272C772.809 473.191 772.336 473.116 771.865 473.01C771.186 472.857 770.502 472.67 769.82 472.459C769.483 472.353 769.15 472.244 768.817 472.125C768.651 472.067 768.486 472.006 768.322 471.946C768.273 471.929 768.18 471.891 768.088 471.852C768.062 471.842 768.04 471.833 768.015 471.819C767.85 471.747 767.685 471.672 767.637 471.652C767.318 471.505 766.996 471.353 766.684 471.193C766.015 470.855 765.353 470.49 764.714 470.103C764.316 469.864 763.922 469.612 763.536 469.355C763.664 469.165 763.794 468.98 763.927 468.796L763.935 468.805Z" fill="#04A14D" fill-opacity="0.7"/>
<path d="M609.648 81.3934C609.335 77.4317 611.92 74.1565 615.829 73.5092C619.493 72.9031 623.411 75.9986 623.704 79.6931C623.858 81.6648 624.122 83.6228 624.515 85.5611C624.601 85.9983 624.696 86.4326 624.795 86.8675C624.857 87.1411 625.147 88.2974 624.839 87.0907C624.564 86.0102 624.74 86.7121 624.806 86.9385C625.065 87.8608 625.33 88.7753 625.631 89.6822C626.152 91.2544 626.755 92.7999 627.423 94.312C627.785 95.1284 628.166 95.9348 628.57 96.7315C628.77 97.1296 628.984 97.5211 629.188 97.9198C629.755 99.0097 628.428 96.6149 629.052 97.6742C630.772 100.591 632.701 103.362 634.921 105.921C635.257 106.305 635.593 106.689 635.94 107.062C636.07 107.202 636.206 107.335 636.331 107.484C636.393 107.558 635.202 106.331 635.74 106.867C636.327 107.453 636.909 108.039 637.516 108.606C638.772 109.778 640.09 110.889 641.457 111.926C642.117 112.428 642.789 112.909 643.471 113.376C643.84 113.626 644.21 113.872 644.585 114.114C644.826 114.268 645.993 114.993 644.935 114.345C643.87 113.691 645.319 114.554 645.639 114.732C645.974 114.916 646.31 115.101 646.647 115.277C647.38 115.664 648.122 116.027 648.874 116.378C652.464 118.056 653.89 122.098 652.467 125.73C651.091 129.247 646.478 130.897 643.123 129.328C639.011 127.407 635.067 124.975 631.522 122.135C619.208 112.262 610.887 97.1729 609.642 81.3795L609.648 81.3934Z" fill="#A980FF" fill-opacity="0.7"/>
<path d="M1087.3 77.9101C1085.25 82.465 1084.87 87.4741 1086.2 92.3952C1087.35 96.6025 1089.65 100.778 1093.24 105.157C1095.67 108.118 1098.47 110.745 1101.46 112.892C1100.79 113.522 1100.09 114.13 1099.37 114.707C1099.17 114.77 1098.99 114.948 1098.73 115.21C1098.44 115.419 1098.16 115.623 1097.87 115.822C1097.06 116.384 1096.21 116.921 1095.37 117.415C1094.64 117.836 1093.9 118.237 1093.16 118.605C1092.75 118.807 1092.34 119.002 1091.92 119.192C1091.8 119.244 1091.68 119.297 1091.56 119.35L1091.3 119.466C1091.25 119.485 1091.2 119.506 1091.15 119.524C1089.46 120.191 1087.68 120.734 1085.88 121.138C1085.07 121.318 1084.25 121.478 1083.42 121.606C1083.23 121.589 1083.03 121.628 1082.78 121.68C1082.73 121.691 1082.68 121.701 1082.65 121.707C1082.1 121.768 1081.54 121.816 1080.99 121.855C1079.12 121.983 1077.21 121.983 1075.3 121.851C1074.83 121.817 1074.35 121.777 1073.88 121.729L1073.5 121.687C1073.5 121.687 1073.47 121.684 1073.46 121.683C1073.17 121.639 1072.87 121.595 1072.57 121.547C1073.33 119.879 1074.01 118.177 1074.61 116.442C1077.41 108.341 1078.13 99.8362 1076.68 91.8401C1074.86 81.8548 1069.36 73.3594 1061.96 69.1185C1057.58 66.6062 1052.55 65.799 1047.82 66.8491C1044.05 67.6837 1040.32 69.8385 1037.32 72.9149C1034.41 75.9023 1032.26 79.6052 1031.1 83.6177C1029.94 87.606 1029.9 92.2034 1030.97 96.9149C1032.78 104.828 1037.84 112.551 1045.23 118.656C1049.47 122.164 1054.11 124.982 1058.98 127.021C1058.88 127.136 1058.77 127.305 1058.61 127.543C1058.32 127.918 1058.01 128.292 1057.71 128.66C1057.08 129.425 1056.42 130.175 1055.75 130.892C1054.38 132.364 1052.93 133.745 1051.45 134.999C1051.07 135.319 1050.69 135.631 1050.3 135.938L1050.25 135.984C1050.21 136.011 1050.16 136.053 1050.11 136.095C1049.98 136.189 1049.85 136.284 1049.73 136.378C1048.93 136.964 1048.11 137.519 1047.29 138.033C1045.76 138.998 1044.07 139.892 1042.12 140.768C1042.11 140.769 1042.1 140.774 1042.1 140.777L1041.9 140.855C1041.75 140.91 1041.61 140.968 1041.47 141.022C1041.02 141.193 1040.55 141.355 1040.09 141.504C1039.17 141.808 1038.22 142.069 1037.29 142.284C1036.82 142.394 1036.34 142.493 1035.86 142.577C1035.72 142.605 1035.59 142.624 1035.45 142.648L1035.18 142.695C1034.73 142.741 1034.24 142.789 1033.72 142.824C1034.07 138.127 1033.54 133.424 1032.09 129.093C1030.73 125.016 1028.02 119.59 1022.81 116.88C1018.87 114.833 1012.93 114.124 1008.53 117.154C1006.04 118.875 1004.3 121.294 1003.5 124.154C1002.83 126.548 1002.83 129.35 1003.51 132.255C1004.51 136.526 1007.2 140.842 1010.89 144.093C1014.34 147.131 1018.43 149.322 1022.86 150.581C1022.85 150.627 1022.83 150.671 1022.81 150.717L1022.74 150.928C1022.74 150.928 1022.73 150.937 1022.73 150.943C1022.33 151.824 1021.9 152.765 1021.4 153.662C1020.91 154.544 1020.38 155.416 1019.8 156.252C1019.66 156.462 1019.51 156.669 1019.37 156.87L1019.22 157.075C1019.19 157.116 1019.15 157.163 1019.11 157.22C1019.1 157.243 1019.08 157.261 1019.08 157.268L1019.08 157.273C1019.06 157.296 1019.05 157.322 1019.04 157.347C1018.92 157.485 1018.76 157.67 1018.54 157.919L1018.42 158.048C1017.11 159.587 1015.63 161.011 1014.05 162.28L1013.85 162.437C1013.81 162.465 1013.77 162.496 1013.72 162.537C1013.69 162.564 1013.67 162.58 1013.66 162.588L1013.66 162.593C1013.66 162.593 1013.65 162.601 1013.64 162.606C1013.56 162.656 1013.48 162.706 1013.42 162.75C1013 163.046 1012.58 163.335 1012.16 163.607C1011.37 164.111 1010.56 164.587 1009.74 165.018C1009.29 165.255 1008.84 165.485 1008.38 165.697C1008.15 165.804 1007.92 165.91 1007.69 166.011L1007.45 166.112C1007.42 166.128 1007.38 166.144 1007.33 166.165C1007.27 166.191 1007.24 166.205 1007.22 166.21L1007.22 166.219C1007.18 166.245 1007.13 166.271 1007.09 166.303C1006.95 166.349 1006.8 166.393 1006.67 166.427C1006.51 166.471 1006.36 166.516 1006.23 166.562C1005.79 166.713 1005.31 166.866 1004.77 167.023C1003.58 167.374 1002.56 168.223 1001.96 169.349C1001.41 170.377 1001.29 171.518 1001.63 172.568C1002.35 174.846 1004.62 176.229 1006.8 175.791C1006.92 175.768 1007.04 175.738 1007.16 175.703C1016.82 172.851 1024.98 166.232 1029.53 157.542C1030.49 155.709 1031.3 153.799 1031.94 151.839C1033.65 151.839 1035.39 151.713 1037.12 151.453C1045.44 150.215 1053.91 145.59 1060.99 138.438C1063.57 135.826 1065.92 132.937 1067.97 129.843C1068.46 129.944 1068.95 130.038 1069.43 130.127C1078.79 131.802 1088.04 130.759 1096.19 127.107C1101.26 124.835 1105.89 121.488 1109.75 117.363C1113.03 118.59 1116.37 119.237 1119.62 119.259C1124.29 119.291 1129.04 118.015 1133 115.664C1137.11 113.23 1140.27 109.753 1141.9 105.873C1142.29 104.957 1142.67 103.866 1142.31 102.526C1142 101.385 1141.14 100.282 1140.18 99.7865C1139.01 99.185 1137.44 99.0946 1136.19 99.55C1135.16 99.9225 1134.41 100.61 1134.02 101.539C1133.67 102.382 1133.25 103.171 1132.8 103.883C1132.7 104.038 1132.6 104.191 1132.49 104.341C1132.26 104.56 1132.09 104.725 1132.02 104.898C1131.91 105.038 1131.8 105.175 1131.68 105.302C1131.39 105.62 1131.07 105.93 1130.74 106.231C1130.64 106.33 1130.51 106.424 1130.38 106.519C1130.16 106.68 1129.92 106.864 1129.72 107.079C1129.57 107.184 1129.42 107.289 1129.27 107.389C1128.87 107.652 1128.45 107.903 1128.02 108.141C1127.66 108.343 1127.29 108.532 1126.92 108.709C1126.8 108.768 1126.67 108.825 1126.54 108.883L1126.37 108.961C1125.58 109.246 1124.64 109.566 1123.67 109.798C1123.3 109.887 1122.93 109.967 1122.56 110.032C1122.34 109.961 1122.09 110.034 1121.77 110.147C1120.85 110.237 1119.92 110.269 1119.01 110.237C1118.68 110.225 1118.35 110.199 1118.02 110.173L1117.75 110.153C1117.75 110.153 1117.75 110.153 1117.75 110.153L1117.42 110.101C1117.26 110.076 1117.1 110.05 1116.94 110.025C1116.45 109.937 1115.96 109.832 1115.47 109.712C1120.22 101.594 1121.83 92.2544 1119.87 84.0262C1118.66 78.9256 1115.89 74.639 1111.87 71.6361C1107.82 68.6123 1102.6 67.5076 1097.93 68.6858C1093.43 69.8164 1089.36 73.3497 1087.31 77.9046L1087.3 77.9101ZM1018.52 124.067C1018.52 124.067 1018.52 124.068 1018.53 124.07C1018.52 124.086 1018.51 124.099 1018.51 124.111L1018.52 124.067ZM1016.76 123.532C1016.78 123.538 1016.81 123.545 1016.84 123.55C1016.84 123.64 1016.82 123.721 1016.79 123.788L1016.76 123.532L1016.76 123.532ZM1024.62 136.638C1024.63 136.69 1024.65 136.746 1024.67 136.8C1024.68 136.959 1024.68 137.122 1024.68 137.231C1024.68 137.394 1024.68 137.546 1024.69 137.665C1024.8 138.971 1024.81 140.328 1024.74 141.776C1024.39 141.67 1024.05 141.554 1023.7 141.436C1023.52 141.372 1023.34 141.308 1023.16 141.238C1023.09 141.212 1023.02 141.186 1022.95 141.159C1021.2 140.383 1019.69 139.549 1018.37 138.618C1018.27 138.495 1018.09 138.375 1017.8 138.195C1017.46 137.913 1017.12 137.617 1016.79 137.315C1016.13 136.699 1015.5 136.04 1014.93 135.359C1014.89 135.312 1014.85 135.26 1014.81 135.205C1014.73 135.089 1014.64 134.964 1014.53 134.848C1014.28 134.499 1014.04 134.139 1013.82 133.778C1013.58 133.387 1013.36 132.987 1013.15 132.592C1013.08 132.454 1013.01 132.316 1012.94 132.178C1012.87 132.036 1012.81 131.894 1012.74 131.758C1012.73 131.715 1012.7 131.663 1012.67 131.605C1012.66 131.581 1012.66 131.563 1012.65 131.555L1012.65 131.556C1012.64 131.541 1012.63 131.522 1012.62 131.505C1012.57 131.342 1012.5 131.109 1012.41 130.776L1012.38 130.64C1012.28 130.292 1012.2 129.94 1012.12 129.565L1012.04 129.213C1012.04 129.213 1012.04 129.213 1012.04 129.21L1012.03 129.024C1012.02 128.874 1012 128.724 1012 128.571C1011.98 128.173 1011.99 127.774 1012.01 127.354L1012.01 127.244C1012.03 127.169 1012.04 127.092 1012.06 127.017C1012.08 126.888 1012.11 126.76 1012.14 126.633C1012.17 126.512 1012.21 126.392 1012.24 126.276C1012.27 126.205 1012.29 126.132 1012.31 126.062C1012.33 126.02 1012.35 125.979 1012.37 125.94C1012.43 125.822 1012.49 125.7 1012.56 125.589C1012.58 125.557 1012.61 125.515 1012.65 125.468C1012.72 125.383 1012.78 125.294 1012.84 125.202L1013.24 124.803L1013.25 124.801C1013.36 124.728 1013.46 124.661 1013.58 124.598C1013.69 124.536 1013.8 124.478 1013.92 124.421L1013.94 124.411C1014.26 124.321 1014.54 124.245 1014.8 124.18C1014.94 124.175 1015.07 124.157 1015.2 124.138C1015.29 124.126 1015.38 124.111 1015.46 124.109C1015.6 124.105 1015.77 124.121 1015.95 124.137C1015.96 124.135 1015.96 124.139 1015.97 124.138C1016.16 124.205 1016.39 124.197 1016.63 124.171C1016.79 124.203 1016.95 124.237 1017.11 124.275C1017.26 124.313 1017.43 124.374 1017.6 124.436C1017.62 124.442 1017.64 124.447 1017.65 124.455C1017.8 124.534 1017.98 124.587 1018.18 124.63C1018.33 124.704 1018.48 124.775 1018.62 124.856C1018.68 124.895 1018.79 124.977 1018.91 125.071C1019.25 125.335 1019.5 125.523 1019.73 125.626C1019.89 125.765 1020.04 125.906 1020.19 126.054C1020.49 126.35 1020.76 126.663 1021.05 126.998L1021.17 127.14C1021.21 127.182 1021.26 127.233 1021.31 127.288C1021.37 127.393 1021.44 127.498 1021.47 127.552C1021.51 127.627 1021.54 127.683 1021.56 127.709C1022.13 128.577 1022.59 129.524 1022.98 130.342C1022.98 130.35 1022.98 130.358 1022.99 130.366L1023.08 130.609C1023.14 130.755 1023.19 130.902 1023.24 131.05C1023.41 131.513 1023.56 131.996 1023.71 132.482C1023.98 133.423 1024.21 134.407 1024.4 135.412C1024.45 135.658 1024.49 135.906 1024.53 136.15L1024.57 136.398C1024.57 136.434 1024.58 136.476 1024.59 136.521C1024.6 136.59 1024.6 136.632 1024.6 136.644L1024.61 136.642L1024.62 136.638ZM1038.79 93.4234C1038.78 93.3902 1038.77 93.3571 1038.77 93.324L1039.05 93.3425C1038.97 93.3862 1038.88 93.4155 1038.78 93.4239L1038.79 93.4234ZM1040.49 99.21C1040.47 99.1702 1040.45 99.1338 1040.44 99.094L1040.79 99.0325C1040.71 99.1132 1040.61 99.174 1040.49 99.21ZM1068.18 104.396C1068.17 104.508 1068.15 104.627 1068.14 104.746C1068.14 104.746 1068.14 104.749 1068.14 104.751C1068.14 104.786 1068.14 104.821 1068.14 104.852C1068.13 104.923 1068.12 104.991 1068.11 105.062C1068.09 105.256 1068.06 105.454 1068.03 105.649C1067.9 106.527 1067.73 107.412 1067.55 108.276C1067.18 110.004 1066.7 111.748 1066.13 113.465C1065.85 114.311 1065.54 115.165 1065.22 116.007L1065.12 116.238C1065.11 116.266 1065.1 116.298 1065.08 116.338C1064.88 116.809 1064.68 117.281 1064.46 117.746C1064.23 118.243 1064 118.737 1063.75 119.232C1063.5 119.131 1063.24 119.028 1062.97 118.932C1062.85 118.877 1062.68 118.822 1062.45 118.75C1062.24 118.658 1062.02 118.566 1061.81 118.471C1061.3 118.243 1060.78 118.004 1060.28 117.76C1058.56 116.923 1056.87 115.969 1055.26 114.932C1054.52 114.454 1053.79 113.952 1053.08 113.439L1052.51 113.019C1052.09 112.684 1051.67 112.347 1051.25 112.002C1049.78 110.764 1048.4 109.448 1047.14 108.086C1046.56 107.451 1045.99 106.793 1045.45 106.129C1045.36 106.026 1045.28 105.921 1045.2 105.818L1045 105.57C1045 105.57 1045 105.565 1044.99 105.56C1044.68 105.137 1044.37 104.716 1044.08 104.281C1043 102.698 1042.06 101.062 1041.29 99.4241C1041.21 99.2403 1041.13 99.056 1041.04 98.8716C1040.98 98.5392 1040.93 98.2836 1040.76 98.1242C1040.71 98.0055 1040.66 97.8896 1040.61 97.7803C1040.27 96.838 1039.99 95.8818 1039.76 94.94C1039.65 94.4961 1039.55 94.0506 1039.47 93.6072C1039.45 93.483 1039.43 93.3549 1039.41 93.2296C1039.42 92.98 1039.42 92.7624 1039.36 92.5797C1039.35 92.5041 1039.33 92.429 1039.32 92.3567C1039.3 92.1949 1039.27 92.0337 1039.26 91.8835C1039.22 91.3485 1039.21 90.8151 1039.2 90.2955C1039.21 89.7411 1039.24 89.1966 1039.29 88.6223C1039.29 88.5671 1039.29 88.5119 1039.3 88.4561C1039.33 88.3384 1039.34 88.2241 1039.35 88.1358C1039.37 87.9215 1039.4 87.6432 1039.42 87.5206C1039.51 87.0727 1039.62 86.6231 1039.74 86.1796C1039.86 85.7179 1040.02 85.2727 1040.19 84.8022C1040.21 84.7679 1040.22 84.7309 1040.23 84.6972C1040.28 84.5972 1040.32 84.495 1040.35 84.4232C1040.42 84.2332 1040.55 83.9129 1040.6 83.8018C1040.8 83.3886 1041.02 82.9743 1041.24 82.5694C1041.59 81.9601 1041.97 81.3607 1042.38 80.7877C1042.56 80.5827 1042.68 80.4346 1042.76 80.3131C1043.02 80.0086 1043.28 79.7114 1043.55 79.4273C1044 78.9615 1044.46 78.5177 1044.94 78.1054C1045.09 78.0274 1045.25 77.8826 1045.5 77.6616C1045.83 77.4288 1046.17 77.2049 1046.51 76.9987C1047.05 76.6714 1047.62 76.4009 1048.21 76.1177L1048.37 76.0552C1048.47 76.017 1048.57 75.9794 1048.68 75.944C1049.09 75.8034 1049.51 75.6838 1049.93 75.5852C1050.08 75.5503 1050.23 75.527 1050.37 75.4976C1050.46 75.5003 1050.56 75.4919 1050.67 75.4725C1050.83 75.4437 1051.15 75.3865 1051.28 75.3793C1051.63 75.3574 1051.98 75.3533 1052.32 75.3597C1052.51 75.3645 1052.7 75.3721 1052.89 75.3852C1052.95 75.389 1053.01 75.3911 1053.07 75.3927C1054.06 75.5698 1054.88 75.7707 1055.62 76.0219C1055.76 76.1018 1055.94 76.1685 1056.16 76.2484C1056.21 76.2666 1056.26 76.2836 1056.27 76.2897C1056.78 76.529 1057.29 76.8052 1057.79 77.1068C1058.21 77.3589 1058.63 77.6363 1059.04 77.9275L1059.24 78.0737C1059.26 78.0875 1059.28 78.1007 1059.3 78.1161C1059.37 78.1696 1059.45 78.2397 1059.55 78.3335L1059.61 78.387C1060.37 79.0308 1061.11 79.753 1061.8 80.5294C1062.1 80.8555 1062.38 81.2032 1062.66 81.5381L1062.81 81.718C1062.81 81.718 1062.81 81.718 1062.81 81.7208C1062.81 81.7208 1062.81 81.7208 1062.81 81.7235L1063 81.9895C1063.09 82.1126 1063.18 82.2351 1063.26 82.3615C1063.83 83.1816 1064.36 84.0542 1064.85 84.9527C1065.23 85.6576 1065.59 86.3895 1065.92 87.1297C1065.93 87.1589 1065.94 87.1915 1065.95 87.2257C1065.95 87.2257 1065.96 87.2467 1065.97 87.2599C1066.01 87.361 1066.07 87.4818 1066.13 87.6265C1066.32 88.0951 1066.49 88.5737 1066.65 89.044C1067.2 90.6621 1067.64 92.3541 1067.96 94.0778C1067.99 94.244 1068.01 94.4118 1068.03 94.5791C1068.04 94.5929 1068.04 94.604 1068.04 94.6178C1068.04 94.7823 1068.08 94.9971 1068.16 95.3267C1068.18 95.5144 1068.2 95.7054 1068.22 95.8937C1068.31 96.7517 1068.37 97.6297 1068.4 98.5021C1068.47 100.224 1068.42 101.994 1068.26 103.766C1068.25 103.877 1068.21 104.146 1068.18 104.382L1068.18 104.396ZM1099.07 115.759C1099.01 115.688 1098.96 115.614 1098.94 115.535L1099.12 115.719C1099.11 115.731 1099.09 115.747 1099.07 115.759ZM1133.04 104.661C1133.04 104.661 1133.03 104.685 1133.02 104.694L1132.89 104.552C1132.94 104.578 1132.99 104.617 1133.04 104.661ZM1121.72 110.47L1121.84 110.794C1121.8 110.799 1121.76 110.802 1121.72 110.804C1121.69 110.683 1121.69 110.568 1121.72 110.47ZM1094.7 81.748C1094.77 81.7689 1094.84 81.7932 1094.89 81.829L1094.68 81.7867C1094.68 81.7867 1094.7 81.7579 1094.7 81.7452L1094.7 81.748ZM1093.85 84.6813C1093.93 84.6884 1094 84.7082 1094.07 84.7358L1093.84 84.7614C1093.84 84.7349 1093.85 84.7078 1093.85 84.6807L1093.85 84.6813ZM1094.53 88.4212L1094.5 88.2583C1094.49 88.1391 1094.48 88.0077 1094.46 87.8592L1094.44 87.7526C1094.4 87.2673 1094.38 86.7952 1094.38 86.3501C1094.38 86.1751 1094.4 85.9757 1094.42 85.7642C1094.44 85.6377 1094.45 85.5091 1094.46 85.3804C1094.49 85.2313 1094.49 85.0557 1094.47 84.8636C1094.49 84.7537 1094.51 84.6438 1094.53 84.5361C1094.62 84.1114 1094.72 83.6828 1094.84 83.2619C1094.89 83.1001 1094.95 82.9383 1095.02 82.7759C1095.02 82.7698 1095.02 82.7637 1095.03 82.7571C1095.14 82.5985 1095.2 82.3655 1095.27 82.0656C1095.37 81.8402 1095.48 81.617 1095.6 81.3983C1095.77 81.0801 1095.95 80.7674 1096.15 80.4674C1096.21 80.3652 1096.28 80.2625 1096.35 80.1625C1096.4 80.0989 1096.44 80.036 1096.48 79.9724C1096.73 79.6779 1096.98 79.3994 1097.24 79.1369C1097.39 78.9894 1097.54 78.844 1097.7 78.7064C1097.74 78.6694 1097.78 78.6357 1097.82 78.5992C1097.96 78.5096 1098.1 78.4107 1098.23 78.315C1098.34 78.2321 1098.46 78.1492 1098.57 78.0801C1098.69 78.0071 1098.85 77.9385 1099.01 77.8688C1099.2 77.7842 1099.41 77.6901 1099.61 77.5696C1099.79 77.5104 1099.97 77.4572 1100.16 77.409C1100.27 77.3802 1100.38 77.3548 1100.5 77.3315C1100.6 77.3121 1100.7 77.2921 1100.79 77.2672C1100.8 77.2655 1100.81 77.2639 1100.82 77.2622C1100.83 77.2589 1100.85 77.2589 1100.86 77.2583C1101.21 77.2282 1101.57 77.2196 1101.93 77.2254C1102.06 77.2286 1102.18 77.2352 1102.31 77.2439C1102.38 77.2477 1102.44 77.2515 1102.51 77.2553L1102.55 77.2641C1102.95 77.3395 1103.33 77.4132 1103.7 77.5139C1103.91 77.5723 1104.12 77.634 1104.32 77.7017C1104.36 77.7122 1104.39 77.7232 1104.42 77.7337C1104.77 77.9587 1105.15 78.1389 1105.51 78.3126C1105.88 78.4862 1106.22 78.65 1106.52 78.8507C1106.57 78.8816 1106.62 78.9208 1106.67 78.9621C1106.78 79.0515 1106.91 79.1525 1107.05 79.2302C1107.41 79.5369 1107.76 79.8635 1108.09 80.2029C1108.33 80.4534 1108.56 80.7227 1108.78 80.9804C1108.83 81.0538 1108.87 81.1272 1108.93 81.2C1109 81.3109 1109.08 81.4219 1109.16 81.5361C1109.41 81.9224 1109.65 82.3309 1109.87 82.7432C1109.98 82.9507 1110.08 83.1593 1110.18 83.3691C1110.2 83.4055 1110.22 83.4453 1110.24 83.4817C1110.27 83.7207 1110.4 84.0006 1110.57 84.3853C1110.62 84.4935 1110.66 84.5852 1110.68 84.6359C1110.82 85.072 1110.96 85.5303 1111.08 85.9979C1111.19 86.4483 1111.3 86.9187 1111.38 87.3919C1111.41 87.5409 1111.44 87.6889 1111.46 87.8385L1111.5 88.0273C1111.51 88.1229 1111.52 88.2184 1111.53 88.3111C1111.72 90.1365 1111.72 92.052 1111.52 94.0041C1111.52 94.0069 1111.52 94.0096 1111.52 94.013C1111.49 94.1615 1111.47 94.2863 1111.46 94.3924C1111.45 94.4106 1111.45 94.4255 1111.45 94.4371L1111.45 94.4365C1111.45 94.4835 1111.44 94.5243 1111.44 94.5619C1111.39 94.9407 1111.32 95.3185 1111.25 95.689C1111.07 96.6356 1110.84 97.5889 1110.57 98.525C1110.36 99.2508 1110.12 99.9793 1109.86 100.698C1109.74 100.843 1109.67 101.078 1109.55 101.474C1109.36 101.917 1109.16 102.363 1108.95 102.799C1108.43 103.861 1107.86 104.91 1107.23 105.935C1106.78 105.633 1106.36 105.334 1105.97 105.053C1105.96 105.047 1105.95 105.038 1105.94 105.028L1105.68 104.824C1105.55 104.721 1105.42 104.615 1105.29 104.512C1104.81 104.112 1104.32 103.687 1103.84 103.254C1102.27 101.82 1100.78 100.23 1099.42 98.525L1099.13 98.163C1099.13 98.163 1099.13 98.163 1099.13 98.1603L1098.99 97.9572C1098.75 97.6233 1098.51 97.2927 1098.27 96.9517C1097.66 96.0444 1097.1 95.1315 1096.61 94.2379C1096.42 93.8802 1096.23 93.5215 1096.06 93.1577C1095.95 92.9408 1095.85 92.72 1095.74 92.4832L1095.65 92.2856C1095.64 92.2458 1095.61 92.1901 1095.58 92.1327C1095.57 92.1062 1095.57 92.0902 1095.56 92.0797L1095.56 92.0808C1095.53 92.024 1095.49 91.9649 1095.44 91.9081C1095.23 91.2782 1094.93 90.1873 1094.78 89.574C1094.69 89.1798 1094.6 88.7889 1094.54 88.4146L1094.53 88.4212Z" fill="#FFABD1" fill-opacity="0.7"/>
<path d="M1055.32 308.846L1055.38 308.901C1058.11 311.232 1060.93 313.316 1064.06 315.606C1067.53 318.143 1071.12 320.672 1075.05 323.332C1079.19 326.144 1082.61 328.363 1085.79 330.315L1085.99 330.436C1088.45 331.945 1090.99 333.506 1093.73 334.57C1094.17 334.739 1094.99 335 1095.87 335C1096.52 335 1097.2 334.855 1097.79 334.421C1097.92 334.329 1098.04 334.232 1098.17 334.132C1098.25 334.072 1098.33 334.011 1098.41 333.945C1098.84 333.599 1099.18 333.153 1099.5 332.723C1099.58 332.614 1099.66 332.504 1099.75 332.401C1100.6 331.315 1101.51 330.109 1102.53 328.714C1105.05 325.291 1107.45 321.88 1109.47 318.996C1112.23 315.044 1114.9 311.16 1117.4 307.449C1119.86 303.795 1121.9 300.718 1123.87 297.565C1124.55 296.475 1125.21 295.404 1125.83 294.281L1125.89 294.181C1126.41 293.231 1127 292.156 1127 290.961C1127 289.382 1125.97 288.189 1125.07 287.329C1124.21 286.511 1123.32 285.789 1122.31 285C1118.92 282.318 1115.47 279.855 1112.54 277.8C1108.85 275.203 1104.97 272.567 1101.01 269.963C1097.99 267.983 1094.41 265.658 1090.67 263.43C1089.51 262.741 1088.26 262.011 1086.99 261.351L1086.73 261.213C1085.88 260.772 1085.01 260.316 1084.07 260.107C1081.06 259.44 1078.95 262.026 1077.4 263.912L1077.23 264.121C1074.86 267.009 1072.7 270.014 1070.17 273.639C1067.7 277.19 1065.18 280.964 1062.45 285.177C1059.83 289.233 1057.74 292.584 1055.87 295.718C1055.66 296.073 1055.44 296.433 1055.23 296.793C1054.1 298.644 1052.94 300.556 1052.23 302.609C1051.26 305.388 1053.6 307.386 1055.31 308.844L1055.32 308.846ZM1059.93 302.545C1061.62 299.501 1063.48 296.501 1065.25 293.691C1067.58 289.972 1070.04 286.184 1072.55 282.434C1075.38 278.208 1077.6 275.023 1079.76 272.104C1080.03 271.744 1080.3 271.385 1080.57 271.027L1080.95 270.527C1081.22 270.211 1081.47 269.882 1081.72 269.564C1081.92 269.305 1082.12 269.047 1082.33 268.797C1082.7 268.336 1083.12 267.838 1083.56 267.364C1083.73 267.457 1083.9 267.542 1084.04 267.621C1087.06 269.244 1090.01 271.117 1092.61 272.771C1096.15 275.023 1099.8 277.431 1103.77 280.135C1107.86 282.919 1111.19 285.267 1114.26 287.526C1114.97 288.046 1115.67 288.573 1116.37 289.103L1116.93 289.527C1117.18 289.726 1117.44 289.926 1117.69 290.127C1118.31 290.617 1118.88 291.075 1119.42 291.546C1117.98 294.049 1116.36 296.505 1114.8 298.883L1114.54 299.275C1112.35 302.602 1109.99 306.094 1107.12 310.263C1104.45 314.141 1101.99 317.641 1099.62 320.966C1098.42 322.641 1097.43 324.01 1096.5 325.273C1096.09 325.833 1095.68 326.392 1095.26 326.947C1095.11 327.135 1094.97 327.324 1094.83 327.512C1094.79 327.493 1094.75 327.473 1094.71 327.451C1094.19 327.186 1093.64 326.89 1092.99 326.523C1090 324.843 1087.11 323.014 1083.7 320.784C1080.15 318.466 1076.44 315.946 1072.68 313.296C1070.83 311.989 1069.12 310.763 1067.46 309.548C1066.68 308.978 1065.91 308.405 1065.13 307.826C1064.76 307.55 1064.4 307.272 1064.03 306.993L1063.41 306.517L1063.07 306.252C1061.87 305.317 1060.64 304.361 1059.51 303.319C1059.63 303.085 1059.77 302.83 1059.93 302.545H1059.93Z" fill="#FF852B" fill-opacity="0.7"/>
<path d="M145.211 290.347C138.386 275.649 131.557 260.955 124.732 246.257C123.393 243.377 118.474 241.975 115.897 243.955C104.386 252.787 93.9655 262.784 84.9814 274.17C88.5813 275.113 92.1773 276.06 95.7771 277.004C90.1001 260.59 84.427 244.173 78.75 227.759C77.6529 224.587 74.2677 222.161 70.8045 223.275C67.6458 224.292 65.1158 227.774 66.2949 231.175C71.9719 247.589 77.645 264.006 83.3221 280.42C84.0678 282.579 85.5554 284.283 87.8317 284.904C89.8463 285.455 92.7434 284.993 94.1178 283.254C98.3775 277.858 102.957 272.714 107.85 267.877C110.27 265.482 112.765 263.164 115.327 260.92C116.607 259.798 117.907 258.7 119.223 257.616C119.879 257.077 120.543 256.541 121.21 256.009C121.542 255.745 121.878 255.481 122.214 255.217C122.522 254.977 123.865 253.94 122.421 255.046C119.477 254.278 116.529 253.509 113.585 252.744C120.41 267.442 127.239 282.136 134.064 296.834C134.704 298.212 136.508 299.396 137.925 299.784C139.471 300.207 141.529 300.017 142.903 299.136C146.074 297.102 146.741 293.623 145.219 290.351L145.211 290.347Z" fill="#FF5649" fill-opacity="0.7"/>
<path d="M1330.94 525.317C1330.8 524.268 1330.58 523.16 1329.54 522.198C1328.63 521.347 1327.21 520.862 1326.02 520.994C1325.07 521.099 1324 521.546 1323.12 522.248L1322.51 522.812C1321.78 523.613 1321.31 524.633 1321.43 525.79C1321.39 525.808 1321.35 525.831 1321.31 525.852L1321.25 525.887C1321.14 525.928 1321.04 525.969 1320.98 525.986C1320.9 526.012 1320.82 526.03 1320.73 526.05C1320.71 526.056 1320.69 526.062 1320.67 526.065L1320.66 526.042C1320.61 526.053 1320.54 526.068 1320.49 526.071H1320.47C1320.36 526.053 1320.26 526.033 1320.16 526.015C1320.12 526.001 1320.08 525.989 1320.06 525.98C1319.87 525.89 1319.68 525.787 1319.49 525.685L1319.3 525.583C1319.26 525.548 1319.23 525.521 1319.21 525.507C1318.98 525.317 1318.74 525.112 1318.5 524.878C1318.28 524.665 1318.06 524.434 1317.82 524.174C1317.77 524.113 1317.71 524.048 1317.66 523.987C1317.63 523.94 1317.59 523.893 1317.55 523.844C1317.52 523.809 1317.47 523.756 1317.46 523.741L1317.14 523.315C1316.9 522.999 1316.67 522.677 1316.45 522.356C1315.49 521.003 1314.62 519.787 1313.63 518.591C1311.91 516.522 1309.06 513.941 1305.2 513.412C1299.32 512.605 1293.16 516.343 1290.57 522.312C1288.02 528.175 1287.94 534.314 1288.16 539.008C1288.27 541.332 1288.48 543.673 1288.68 545.935L1288.77 546.935C1288.98 549.25 1289.17 551.436 1288.97 553.701L1288.97 553.789C1288.96 553.845 1288.94 553.888 1288.94 553.906C1288.89 554.181 1288.84 554.453 1288.77 554.724C1288.65 555.251 1288.49 555.788 1288.3 556.329C1288.25 556.434 1288.21 556.537 1288.17 556.624L1288.06 556.841C1287.97 557.01 1287.89 557.183 1287.79 557.346C1287.71 557.469 1287.63 557.589 1287.56 557.706L1287.44 557.878C1287.39 557.937 1287.34 557.995 1287.29 558.051C1287.12 558.238 1286.95 558.413 1286.77 558.574L1286.39 558.837C1286.25 558.922 1286.12 559.007 1285.99 559.08L1285.9 559.118C1285.72 559.185 1285.53 559.246 1285.3 559.308C1284.87 559.308 1284.4 559.351 1283.99 559.392L1283.88 559.404L1283.81 559.395C1283.59 559.366 1283.36 559.325 1283.14 559.278C1282.91 559.232 1282.69 559.179 1282.51 559.129C1282.51 559.129 1282.49 559.126 1282.48 559.121L1282.4 559.091C1281.95 558.907 1281.5 558.691 1281.09 558.454C1281.05 558.431 1280.96 558.369 1280.87 558.314L1280.86 558.308C1280.76 558.226 1280.63 558.13 1280.58 558.089C1280.18 557.758 1279.78 557.378 1279.41 556.958C1279.39 556.934 1279.37 556.908 1279.35 556.882C1279.3 556.823 1279.26 556.765 1279.21 556.709L1279.12 556.595C1279 556.423 1278.87 556.253 1278.75 556.075C1278.47 555.648 1278.19 555.183 1277.93 554.689C1277.78 554.415 1277.65 554.134 1277.51 553.85C1277.47 553.772 1277.44 553.69 1277.39 553.599C1277.29 553.222 1277.14 552.874 1277 552.535C1276.91 552.333 1276.83 552.132 1276.76 551.933C1276.56 551.36 1276.37 550.755 1276.18 550.08C1275.83 548.908 1275.54 547.706 1275.3 546.502C1275.19 545.912 1275.08 545.298 1274.98 544.672C1274.96 544.52 1274.94 544.371 1274.91 544.219L1274.8 543.378C1274.67 542.188 1274.57 540.955 1274.49 539.604C1274.27 535.81 1274.32 531.911 1274.37 528.14C1274.39 526.734 1274.4 525.329 1274.41 523.926C1274.41 521.76 1274.38 519.459 1273.93 517.197C1273.57 515.391 1272.91 513.543 1271.97 511.708C1270.01 507.882 1266.79 505.175 1263.13 504.281C1259.03 503.275 1254.31 505.008 1250.48 508.908C1246.73 512.739 1244.71 517.878 1244.33 524.615C1244.19 527.094 1244.29 529.573 1244.38 531.969C1244.46 534.109 1244.55 536.325 1244.46 538.496C1244.39 540.414 1244.29 542.013 1244.14 543.533C1244.08 544.243 1243.99 544.968 1243.91 545.669L1243.85 546.09L1244.75 546.312L1243.85 546.143C1243.81 546.353 1243.78 546.564 1243.75 546.774C1243.67 547.256 1243.58 547.736 1243.48 548.215C1243.09 550.2 1242.61 551.933 1242.01 553.508C1241.97 553.608 1241.93 553.704 1241.89 553.801L1241.87 553.848H1241.88C1241.87 553.868 1241.86 553.886 1241.85 553.903L1241.83 553.941C1241.64 554.371 1241.44 554.762 1241.24 555.142C1240.93 555.721 1240.57 556.262 1240.26 556.718C1240.22 556.762 1240.18 556.808 1240.13 556.861C1240.01 557.022 1239.78 557.32 1239.68 557.431C1239.42 557.706 1239.15 557.975 1238.85 558.235C1238.77 558.302 1238.66 558.378 1238.59 558.437L1238.52 558.486C1238.19 558.711 1237.84 558.922 1237.48 559.109L1237.46 559.118C1237.37 559.156 1237.27 559.196 1237.17 559.232C1236.77 559.378 1236.35 559.506 1235.92 559.612L1235.76 559.635C1235.66 559.65 1235.56 559.664 1235.46 559.676C1234.97 559.734 1234.46 559.764 1233.94 559.769C1233.9 559.769 1233.87 559.769 1233.83 559.769L1233.33 559.726C1233.23 559.72 1233.14 559.714 1233.05 559.699C1232.79 559.658 1232.53 559.606 1232.27 559.544C1232.2 559.527 1232.13 559.509 1232.06 559.489C1232.01 559.474 1231.96 559.462 1231.91 559.448C1231.43 559.246 1230.94 559.039 1230.5 558.793C1230.36 558.717 1230.23 558.635 1230.1 558.556L1230.02 558.51C1229.94 558.451 1229.87 558.396 1229.79 558.343C1229.73 558.302 1229.67 558.258 1229.61 558.214C1229.2 557.89 1228.8 557.528 1228.42 557.145C1228.25 556.978 1228.1 556.806 1227.94 556.63C1227.91 556.589 1227.86 556.537 1227.8 556.464C1227.75 556.402 1227.69 556.332 1227.67 556.306C1227.06 555.487 1226.51 554.543 1225.89 553.245L1225.84 553.149C1225.83 553.099 1225.81 553.053 1225.79 553.009C1225.69 552.746 1225.59 552.48 1225.49 552.211C1225.28 551.62 1225.09 550.989 1224.9 550.334C1224.59 549.215 1224.31 548.01 1224.03 546.543C1223.5 543.784 1223.09 541.019 1222.72 538.444C1222.62 537.742 1222.52 537.041 1222.43 536.339L1222.4 536.152C1222.37 535.939 1222.34 535.722 1222.32 535.512L1222.22 534.743C1222.04 533.288 1221.87 531.817 1221.72 530.374C1221.42 527.57 1221.17 524.715 1220.97 521.879C1220.78 519.1 1220.63 516.229 1220.52 513.345C1220.47 512.032 1219.66 510.541 1218.4 509.454C1217.29 508.495 1216.04 508.036 1214.89 508.168C1212.19 508.469 1210.88 510.346 1211.01 513.748C1211.23 519.705 1211.65 525.668 1212.28 531.467C1212.82 536.485 1213.6 543.068 1214.86 549.472C1216.29 556.689 1218.78 561.582 1222.71 564.876C1225.93 567.577 1229.97 569 1234.03 569C1235.93 569 1237.85 568.684 1239.69 568.038C1247.19 565.399 1251.65 558.308 1253.3 546.365C1253.84 542.454 1254.07 538.651 1254 535.068C1253.98 533.975 1253.94 532.867 1253.89 531.8C1253.84 530.496 1253.79 529.149 1253.77 527.828C1253.76 526.448 1253.78 525.241 1253.85 524.133C1253.89 523.528 1253.94 522.938 1254.01 522.379L1254.02 522.303C1254.07 521.967 1254.13 521.628 1254.2 521.292C1254.31 520.719 1254.45 520.164 1254.6 519.646C1254.66 519.433 1254.75 519.202 1254.85 518.959C1254.91 518.793 1254.98 518.623 1255.04 518.457L1255.36 517.676C1255.44 517.527 1255.51 517.381 1255.6 517.235C1255.72 517.013 1255.86 516.794 1256 516.577C1256.06 516.484 1256.12 516.39 1256.19 516.297C1256.25 516.229 1256.33 516.124 1256.49 515.94C1256.56 515.847 1256.63 515.762 1256.66 515.73C1256.83 515.54 1257.01 515.353 1257.19 515.171C1257.54 514.812 1257.93 514.464 1258.28 514.163C1258.44 514.049 1258.6 513.938 1258.77 513.833C1258.89 513.757 1259.01 513.681 1259.14 513.61L1259.74 513.368C1259.82 513.333 1259.91 513.298 1260 513.271L1260.35 513.245C1260.52 513.274 1260.68 513.309 1260.84 513.345C1260.87 513.356 1260.9 513.368 1260.93 513.38C1261.06 513.444 1261.2 513.511 1261.33 513.587C1261.36 513.605 1261.41 513.634 1261.46 513.663C1261.56 513.745 1261.66 513.83 1261.76 513.914C1262 514.125 1262.24 514.365 1262.48 514.622L1262.58 514.753C1262.79 515.04 1263 515.347 1263.19 515.668C1263.37 515.969 1263.54 516.282 1263.7 516.601C1263.75 516.691 1263.79 516.782 1263.83 516.872L1263.9 517.007C1264.17 517.703 1264.39 518.425 1264.57 519.155C1264.65 519.518 1264.73 519.889 1264.79 520.269C1264.81 520.444 1264.82 520.599 1264.84 520.734C1264.98 522.479 1264.94 524.305 1264.9 526.074C1264.89 526.661 1264.87 527.249 1264.87 527.831L1264.86 528.389C1264.83 530.841 1264.8 533.378 1264.84 535.872C1264.95 542.781 1265.59 547.923 1266.91 552.541C1268.22 557.104 1270.66 563.546 1276.68 566.805C1281.75 569.544 1289.37 569.514 1294.13 564.165C1296.26 561.777 1297.67 558.787 1298.21 555.519C1298.7 552.509 1298.57 549.735 1298.35 547.183C1298.29 546.511 1298.23 545.836 1298.17 545.161C1297.77 540.794 1297.37 536.281 1297.75 531.82C1297.78 531.496 1297.81 531.174 1297.85 530.85C1297.86 530.794 1297.87 530.739 1297.87 530.683L1297.9 530.543C1297.99 529.967 1298.09 529.424 1298.21 528.877C1298.34 528.292 1298.49 527.725 1298.66 527.196C1298.75 526.907 1298.85 526.618 1298.95 526.328L1299.05 526.071C1299.11 525.96 1299.16 525.846 1299.22 525.735C1299.37 525.431 1299.51 525.141 1299.68 524.873C1299.77 524.726 1299.87 524.583 1299.97 524.44L1300.05 524.341C1300.11 524.273 1300.16 524.209 1300.21 524.151C1300.38 523.966 1300.57 523.791 1300.78 523.607C1300.89 523.505 1301 523.399 1301.12 523.294C1301.16 523.256 1301.21 523.215 1301.26 523.183C1301.44 523.063 1301.62 522.955 1301.81 522.85L1302 522.745L1302.13 522.698C1302.27 522.645 1302.42 522.593 1302.6 522.543C1302.74 522.534 1302.89 522.523 1303.04 522.511L1303.19 522.499L1303.24 522.511C1303.32 522.528 1303.41 522.555 1303.49 522.581L1304 522.73C1304.02 522.742 1304.04 522.75 1304.06 522.762C1304.2 522.826 1304.33 522.897 1304.46 522.973C1304.49 522.993 1304.56 523.034 1304.62 523.075L1304.74 523.166C1304.81 523.224 1304.88 523.282 1304.96 523.344C1305.19 523.54 1305.42 523.75 1305.66 523.993C1305.86 524.194 1306.06 524.402 1306.25 524.618C1306.3 524.677 1306.35 524.735 1306.4 524.794C1306.45 524.852 1306.5 524.911 1306.55 524.969C1306.98 525.536 1307.39 526.129 1307.8 526.702C1308.16 527.22 1308.53 527.737 1308.91 528.249C1310.8 530.824 1313.28 533.63 1317.34 534.916C1320.05 535.775 1323.59 535.214 1326.36 533.484C1328.96 531.858 1331.39 528.699 1330.95 525.305L1330.94 525.317ZM1241.9 553.921C1241.9 553.906 1241.9 553.891 1241.9 553.88L1242.03 553.938L1241.9 553.921H1241.9Z" fill="#3F79D5" fill-opacity="0.7"/>
<path d="M132.388 508.682C131.085 506.667 128.656 506.033 126.485 507.136C126.332 507.214 126.175 507.287 126.019 507.36L125.867 507.433C125.456 507.582 124.978 507.75 124.48 507.888C124.034 508.01 123.571 508.116 123.106 508.2C123.071 508.205 123.002 508.216 122.926 508.229C122.872 508.235 122.817 508.24 122.769 508.246C122.622 508.262 122.475 508.278 122.418 508.281C121.49 508.351 120.535 508.346 119.586 508.262C119.45 508.251 119.099 508.192 119.033 508.178V508.186C118.998 508.181 118.965 508.178 118.935 508.175C118.454 508.089 117.964 507.983 117.483 507.856C117.023 507.737 116.56 507.596 116.112 507.442C115.899 507.368 115.693 507.293 115.483 507.214L115.355 507.163C114.604 506.805 113.731 506.367 112.893 505.825C112.681 505.687 112.472 505.546 112.265 505.4C112.235 505.378 112.178 505.338 112.115 505.292C112.091 505.273 112.069 505.254 112.047 505.237C111.958 505.164 111.86 505.088 111.824 505.056C111.609 504.875 111.397 504.685 111.19 504.493C110.842 504.168 110.51 503.829 110.203 503.491C110.113 503.393 110.029 503.293 109.942 503.19L109.762 502.982C109.762 502.982 109.749 502.966 109.74 502.955L109.724 502.933C109.24 502.267 108.815 501.568 108.454 500.848C108.416 500.694 108.328 500.518 108.206 500.293C108.16 500.166 108.111 500.038 108.067 499.908C107.939 499.529 107.825 499.142 107.727 498.755C111.612 498.966 115.491 498.221 118.976 496.553C123.715 494.29 128.705 489.031 128.468 482.844C128.313 478.807 125.81 475.511 121.936 474.239C119.363 473.396 116.041 473.581 113.048 474.74C107.994 476.695 103.856 480.41 101.391 485.205C101.04 485.888 100.725 486.578 100.445 487.277C100.251 487.117 100.064 486.952 99.8788 486.784C99.4871 486.432 99.1062 486.055 98.7417 485.665C98.5485 485.46 98.3608 485.248 98.1758 485.035C98.1323 484.986 98.0343 484.864 97.9418 484.75C97.9146 484.715 97.882 484.677 97.8493 484.639C97.8194 484.599 97.7895 484.558 97.7623 484.52C97.6834 484.412 97.6072 484.312 97.5882 484.282C97.4467 484.079 97.3053 483.876 97.1692 483.667C96.8618 483.196 96.568 482.706 96.296 482.208C96.0457 481.747 95.8036 481.268 95.5832 480.786C95.5288 480.556 95.4309 480.342 95.3411 480.147C95.2976 480.052 95.254 479.96 95.2241 479.874C94.8623 478.872 94.5576 477.824 94.321 476.757C94.204 476.229 94.1006 475.69 94.0162 475.151L93.9809 474.848C93.9564 474.629 93.9346 474.409 93.9156 474.187C93.8231 473.066 93.8013 471.926 93.8476 470.802C93.8476 470.792 93.8476 470.781 93.8476 470.77C94.7725 470.854 95.7002 470.897 96.6333 470.897C104.21 470.897 111.979 468.103 118.432 462.804C120.492 461.111 122.377 459.078 124.194 456.581C125.552 454.721 127.287 451.78 127.861 448.339C128.539 444.28 127.701 440.784 125.375 437.949C123.462 435.62 120.35 434.15 116.609 433.814C109.914 433.216 104.139 437.846 99.8598 441.954C95.2105 446.413 91.6196 451.133 89.1848 455.983C88.4883 457.369 87.8817 458.755 87.3621 460.139C86.5759 459.757 85.806 459.335 85.0606 458.877C84.6035 458.598 84.1492 458.301 83.7085 457.995C83.5018 457.851 83.2978 457.705 83.0964 457.556L83.0855 457.548C83.0855 457.548 83.0692 457.534 83.0611 457.529L82.9142 457.415C82.079 456.738 81.2765 456.01 80.5365 455.249C80.1665 454.87 79.802 454.469 79.451 454.066C79.3613 453.963 79.2715 453.857 79.1845 453.751C79.1219 453.589 78.9723 453.427 78.7465 453.196C78.1235 452.343 77.5522 451.45 77.0489 450.54C76.8095 450.107 76.581 449.663 76.3688 449.216C76.3253 449.121 76.2845 449.026 76.2437 448.929C76.192 448.807 76.1403 448.683 76.0804 448.558L75.9988 448.344C75.6098 447.312 75.297 446.256 75.0712 445.206C75.0195 444.973 74.9841 444.737 74.9487 444.502C74.9134 444.269 74.8753 444.031 74.8263 443.79L74.8209 443.735C74.7909 443.427 74.7665 443.115 74.7474 442.807C74.6876 441.78 74.6957 440.735 74.7746 439.698C74.7937 439.422 74.8209 439.146 74.8508 438.869L74.8698 438.742C74.9542 438.241 75.0331 437.767 75.1392 437.291C75.3677 436.243 75.6669 435.2 76.0287 434.19C76.1104 433.963 76.1974 433.736 76.2845 433.508L76.3498 433.346C76.5756 432.858 76.7905 432.395 77.0326 431.935C77.5168 431.011 78.0609 430.121 78.6485 429.281C78.7465 429.14 78.8498 429.002 78.9505 428.867L79.0239 428.767C79.0239 428.767 79.0348 428.753 79.0403 428.745L79.13 428.631C79.481 428.206 79.8482 427.789 80.2237 427.394C80.6698 426.925 81.1513 426.508 81.6573 426.064C81.9239 425.831 82.1905 425.601 82.4544 425.358L82.4925 425.331C82.6884 425.19 82.887 425.052 83.0855 424.919C83.5235 424.627 83.986 424.345 84.5029 424.052C85.4986 423.492 86.2412 422.487 86.5351 421.299C86.8153 420.169 86.6412 419.005 86.0563 418.103C84.7369 416.07 82.1905 415.409 80.1284 416.571C70.7565 421.848 65.0055 433.113 66.1427 443.966C66.7357 449.628 68.9556 454.859 72.7397 459.516C75.9036 463.41 80.2373 466.557 85.3054 468.655C85.1504 470.09 85.0987 471.515 85.1449 472.928C85.3435 478.807 87.0927 484.393 90.0716 488.655C92.4466 492.05 95.3874 494.666 98.728 496.38C98.7552 497.878 98.9402 499.361 99.2803 500.81C101.473 510.09 110.883 517.003 120.837 517C121.528 517 122.224 516.968 122.921 516.897C125.805 516.613 128.389 515.876 130.816 514.642C131.784 514.149 132.521 513.198 132.837 512.031C133.161 510.837 132.997 509.616 132.393 508.682H132.388ZM108.633 490.12C108.742 489.89 108.856 489.659 108.973 489.432C109.392 488.628 109.893 487.826 110.502 486.979L110.673 486.776C110.777 486.654 110.878 486.532 110.984 486.413C111.324 486.034 111.68 485.665 112.045 485.324C112.295 485.089 112.556 484.864 112.814 484.647C113.054 484.504 113.239 484.385 113.356 484.249C113.459 484.179 113.565 484.111 113.671 484.044C114.066 483.792 114.479 483.553 114.898 483.337C115.07 483.247 115.244 483.161 115.421 483.08C115.494 483.055 115.576 483.023 115.665 482.979C116.109 482.825 116.531 482.679 116.963 482.57C117.066 482.546 117.17 482.522 117.273 482.497C117.404 482.492 117.567 482.459 117.785 482.411C117.937 482.4 118.127 482.416 118.329 482.43C118.522 482.443 118.715 482.459 118.911 482.457C118.984 482.457 119.061 482.454 119.126 482.446C119.145 482.451 119.167 482.457 119.188 482.465C119.322 482.552 119.485 482.606 119.645 482.644C119.651 482.649 119.656 482.654 119.665 482.663C119.665 482.663 119.665 482.663 119.667 482.665C119.67 482.679 119.673 482.695 119.675 482.709C119.684 482.841 119.716 482.977 119.771 483.104C119.768 483.166 119.754 483.272 119.743 483.372C119.738 483.437 119.727 483.518 119.727 483.605C119.7 483.721 119.673 483.835 119.64 483.949C119.602 484.092 119.553 484.23 119.504 484.371C119.477 484.452 119.447 484.534 119.422 484.615L119.39 484.683C119.142 485.178 118.835 485.638 118.536 486.085C118.397 486.25 118.255 486.41 118.108 486.567C117.793 486.906 117.456 487.233 117.099 487.542C117.061 487.566 117.02 487.593 116.977 487.629L116.971 487.623C116.909 487.677 116.675 487.878 116.577 487.943C116.177 488.213 115.758 488.468 115.325 488.701C115.154 488.793 114.98 488.874 114.803 488.955C114.675 488.996 114.52 489.072 114.3 489.191C114.259 489.21 114.224 489.224 114.196 489.234C113.965 489.321 113.729 489.4 113.492 489.475C113.051 489.613 112.597 489.738 112.137 489.844C111.922 489.892 111.707 489.938 111.49 489.979C111.424 489.993 111.258 490.017 111.106 490.041C111.073 490.047 111.038 490.052 111.003 490.058C110.916 490.068 110.834 490.076 110.793 490.082C110.54 490.106 110.287 490.122 110.034 490.136C109.564 490.16 109.087 490.166 108.614 490.152L108.63 490.117L108.633 490.12ZM116.83 441.924C116.824 441.981 116.816 442.035 116.797 442.084L116.781 441.913C116.797 441.916 116.813 441.921 116.83 441.924ZM95.9532 461.926C96.4483 460.805 97.0169 459.676 97.6426 458.569C98.2329 457.526 98.8886 456.481 99.5877 455.466C99.9278 454.97 100.29 454.466 100.662 453.971L100.777 453.819C100.929 453.649 101.068 453.47 101.198 453.294C101.28 453.186 101.361 453.08 101.446 452.977C102.977 451.114 104.713 449.27 106.612 447.499C107.504 446.668 108.443 445.85 109.406 445.07C109.452 445.038 109.498 445.003 109.547 444.967L109.681 444.87C109.947 444.678 110.219 444.491 110.494 444.309C111.057 443.938 111.626 443.608 112.181 443.321C112.347 443.234 112.515 443.159 112.684 443.077L112.782 443.031C112.828 443.015 112.872 442.996 112.918 442.98C112.964 442.961 113.01 442.945 113.059 442.926C113.538 442.758 114.055 442.614 114.727 442.471C114.732 442.471 114.738 442.471 114.743 442.471C114.779 442.465 114.814 442.46 114.838 442.457C115.072 442.438 115.315 442.43 115.562 442.43C115.687 442.43 115.821 442.43 115.948 442.436C116.139 442.525 116.378 442.53 116.637 442.511C116.8 442.547 116.958 442.585 117.107 442.625C117.164 442.641 117.235 442.674 117.311 442.706C117.477 442.777 117.66 442.855 117.847 442.893C118.051 443.004 118.253 443.129 118.446 443.251C118.454 443.259 118.465 443.267 118.473 443.275C118.601 443.391 118.718 443.513 118.835 443.638C118.854 443.665 118.876 443.692 118.895 443.719C118.919 443.752 118.944 443.781 118.963 443.811C119.003 443.876 119.039 443.944 119.074 444.014C119.112 444.139 119.178 444.266 119.254 444.393C119.275 444.464 119.297 444.534 119.319 444.605C119.36 444.748 119.39 444.894 119.417 445.041C119.417 445.078 119.422 445.116 119.425 445.154C119.431 445.217 119.433 445.282 119.436 445.344C119.444 445.62 119.439 445.907 119.42 446.191C119.42 446.21 119.42 446.229 119.417 446.245C119.373 446.413 119.346 446.581 119.324 446.733C119.308 446.841 119.292 446.95 119.267 447.047C119.137 447.591 118.954 448.114 118.761 448.669C118.661 448.859 118.584 449.01 118.555 449.148C118.465 449.332 118.372 449.517 118.277 449.698C118.01 450.204 117.714 450.705 117.396 451.187C117.121 451.607 116.816 452.021 116.517 452.427L116.291 452.706C116.101 452.939 115.905 453.167 115.704 453.394C114.936 454.263 114.104 455.097 113.228 455.877C112.907 456.164 112.572 456.435 112.24 456.708L111.868 457.006C111.593 457.209 111.316 457.404 111.035 457.597C110.072 458.257 109.058 458.866 108.024 459.411C107.559 459.657 107.08 459.893 106.601 460.112C106.498 460.158 106.275 460.247 106.133 460.307C106.103 460.321 106.073 460.331 106.043 460.345C106.038 460.345 106.032 460.348 106.03 460.35C106.008 460.364 105.986 460.375 105.964 460.386C105.847 460.434 105.728 460.48 105.611 460.526C104.517 460.941 103.391 461.293 102.267 461.569C101.718 461.704 101.16 461.826 100.613 461.926C100.466 461.953 100.319 461.98 100.173 462.005C100.126 462.005 100.072 462.013 100.015 462.018C100.015 462.018 99.9985 462.018 99.9849 462.024C99.8815 462.037 99.7564 462.062 99.6068 462.089C99.604 462.089 99.6013 462.089 99.5959 462.089C98.4696 462.213 97.3352 462.265 96.2225 462.243C96.092 462.243 95.9614 462.238 95.8308 462.232C95.8335 462.221 95.8389 462.208 95.8444 462.192C95.8526 462.17 95.8607 462.14 95.8716 462.108C95.9042 462.045 95.9314 461.983 95.9559 461.926H95.9532ZM95.5098 461.406C95.8117 461.561 95.8743 461.88 95.8389 462.037C95.8253 462.054 95.7981 462.081 95.7573 462.108L95.4254 461.591C95.4527 461.528 95.4853 461.469 95.5125 461.406H95.5098Z" fill="#FFC003" fill-opacity="0.7"/>
<path d="M1328.47 294.659C1335.89 300.589 1341.43 308.507 1340.55 318.657C1340.3 321.444 1343.26 323.703 1345.82 323.669C1348.84 323.63 1350.58 321.155 1350.82 318.406C1352.01 304.771 1343.93 293.59 1333.59 285.68C1335.2 281.956 1336.31 278.064 1336.84 274.187C1339.29 256.258 1330.68 238.705 1315.37 229.187C1309.75 225.692 1304.8 234.697 1310.41 238.186C1319.57 243.884 1326.09 254.024 1326.95 264.858C1327.36 269.982 1326.53 275.134 1324.75 279.927C1317.7 276.063 1309.53 272.705 1301.33 273.523C1294.01 274.256 1286.96 278.295 1283.55 284.996C1280.18 291.623 1281.5 299.43 1286.78 304.662C1292.46 310.281 1300.9 311.667 1308.4 309.493C1316.51 307.139 1323.43 301.613 1328.47 294.659ZM1292.1 291.212C1293.23 286.868 1297.92 284.114 1302.14 283.747C1308.01 283.237 1313.74 285.708 1318.81 288.393C1319.16 288.58 1319.52 288.784 1319.87 288.977C1318.11 291.321 1316.06 293.453 1313.73 295.276C1309.7 298.438 1304.26 301.08 1299.01 300.008C1295.04 299.196 1290.95 295.608 1292.1 291.208L1292.1 291.212Z" fill="#04A14D" fill-opacity="0.7"/>
<path d="M937.998 589.694C942.125 588.721 944.681 584.589 943.707 580.466C942.733 576.343 938.598 573.789 934.472 574.762C930.345 575.736 927.79 579.867 928.763 583.99C929.737 588.113 933.872 590.667 937.998 589.694Z" fill="#FF852B" fill-opacity="0.7"/>
<path d="M726.487 16.3727C730.672 15.6939 733.514 11.7537 732.835 7.57188C732.155 3.3901 728.212 0.550378 724.027 1.22918C719.842 1.90798 717 5.84825 717.679 10.03C718.359 14.2118 722.302 17.0515 726.487 16.3727Z" fill="#FFC003" fill-opacity="0.7"/>
<path d="M1227.29 407.272C1230.28 404.277 1230.28 399.42 1227.29 396.424C1224.29 393.428 1219.43 393.428 1216.43 396.424C1213.43 399.42 1213.43 404.277 1216.43 407.272C1219.43 410.268 1224.29 410.268 1227.29 407.272Z" fill="#3F79D5" fill-opacity="0.7"/>
<path d="M458.285 25.2725C461.283 22.2769 461.283 17.4199 458.285 14.4243C455.287 11.4286 450.426 11.4286 447.428 14.4242C444.43 17.4199 444.43 22.2769 447.428 25.2725C450.426 28.2682 455.287 28.2682 458.285 25.2725Z" fill="#3F79D5" fill-opacity="0.7"/>
<path d="M666.529 627.515C669.756 624.291 669.756 619.063 666.529 615.838C663.302 612.614 658.07 612.614 654.843 615.838C651.616 619.063 651.616 624.291 654.843 627.515C658.07 630.74 663.302 630.74 666.529 627.515Z" fill="#FFABD1" fill-opacity="0.7"/>
<path d="M969.93 24.1262C974.057 23.1531 976.612 19.0216 975.638 14.8984C974.664 10.7752 970.53 8.22154 966.403 9.19471C962.277 10.1679 959.721 14.2993 960.695 18.4225C961.669 22.5458 965.804 25.0994 969.93 24.1262Z" fill="#FF852B" fill-opacity="0.7"/>
<path d="M1346.37 66.9315C1349.37 63.9358 1349.37 59.0788 1346.37 56.0832C1343.38 53.0875 1338.52 53.0875 1335.52 56.0832C1332.52 59.0788 1332.52 63.9358 1335.52 66.9315C1338.52 69.9271 1343.38 69.9271 1346.37 66.9315Z" fill="#FF852B" fill-opacity="0.7"/>
<path d="M260.5 491C264.642 491 268 487.418 268 483C268 478.582 264.642 475 260.5 475C256.358 475 253 478.582 253 483C253 487.418 256.358 491 260.5 491Z" fill="#04A14D" fill-opacity="0.7"/>
<path d="M1092.5 201C1096.64 201 1100 197.418 1100 193C1100 188.582 1096.64 185 1092.5 185C1088.36 185 1085 188.582 1085 193C1085 197.418 1088.36 201 1092.5 201Z" fill="#04A14D" fill-opacity="0.7"/>
<path d="M1108.19 653.026C1123.79 649.317 1136.69 638.119 1142.76 623.336C1144.14 619.981 1141.85 615.551 1138.41 614.563C1134.61 613.466 1131.11 615.312 1129.63 618.908C1129.31 619.691 1128.96 620.457 1128.61 621.225C1128.29 621.896 1129.47 619.55 1128.73 620.952C1128.54 621.296 1128.36 621.636 1128.16 621.976C1127.36 623.388 1126.48 624.751 1125.52 626.061C1125.06 626.688 1124.58 627.303 1124.08 627.904C1123.84 628.205 1123.57 628.497 1123.33 628.797C1124.65 627.167 1123.79 628.274 1123.47 628.613C1122.36 629.802 1121.19 630.924 1119.95 631.978C1118.71 633.036 1117.31 633.887 1116.07 634.932C1116.35 634.746 1116.62 634.564 1116.9 634.38C1116.68 634.524 1116.46 634.662 1116.24 634.799C1115.91 635.005 1115.58 635.206 1115.24 635.406C1114.57 635.802 1113.88 636.177 1113.19 636.535C1111.81 637.251 1110.39 637.889 1108.93 638.444C1108.69 638.539 1108.44 638.629 1108.2 638.714C1108.51 638.608 1108.82 638.501 1109.14 638.395C1108.76 638.485 1108.4 638.64 1108.03 638.753C1107.15 639.02 1106.27 639.253 1105.39 639.463C1101.87 640.302 1099.07 643.942 1100.01 647.643C1100.91 651.192 1104.43 653.925 1108.2 653.024L1108.19 653.026Z" fill="#FF5649" fill-opacity="0.7"/>
<path d="M1406.49 552.887C1409.67 552.136 1411.64 548.947 1410.89 545.764C1410.14 542.58 1406.95 540.609 1403.76 541.36C1400.58 542.112 1398.61 545.301 1399.36 548.484C1400.11 551.667 1403.3 553.638 1406.49 552.887Z" fill="#3F79D5" fill-opacity="0.7"/>
<path d="M344.581 646.889C350.755 647.853 357.092 647.559 363.033 645.485C368.548 643.561 373.651 640.4 377.601 636.069C379.697 633.773 381.54 631.204 382.909 628.41C384.052 626.081 383.614 622.932 381.128 621.618C378.892 620.435 375.557 620.909 374.335 623.398C373.672 624.751 372.909 626.051 372.039 627.281C371.808 627.605 370.931 628.485 371.967 627.416C371.706 627.686 371.489 628.014 371.246 628.299C370.814 628.806 370.364 629.301 369.895 629.778C369.361 630.328 368.803 630.856 368.226 631.36C367.938 631.615 367.638 631.855 367.344 632.105C366.939 632.429 367.047 632.348 367.668 631.864C367.515 631.981 367.359 632.099 367.206 632.213C366.032 633.074 364.795 633.851 363.51 634.536C363.159 634.722 362.802 634.902 362.445 635.076C362.241 635.175 361.385 635.421 361.289 635.604C361.988 635.313 362.091 635.268 361.595 635.469C361.448 635.529 361.298 635.586 361.151 635.64C360.803 635.772 360.455 635.898 360.1 636.015C358.485 636.562 356.822 636.976 355.141 637.261C354.931 637.297 354.718 637.33 354.508 637.363C355.297 637.261 355.42 637.246 354.874 637.315C354.556 637.351 354.235 637.387 353.916 637.414C353.064 637.492 352.205 637.534 351.35 637.543C350.494 637.552 349.636 637.528 348.78 637.468C348.354 637.438 347.928 637.39 347.501 637.354C346.955 637.288 347.075 637.309 347.865 637.411C347.652 637.381 347.441 637.348 347.231 637.315C345.865 637.102 344.644 637.09 343.404 637.816C342.374 638.419 341.393 639.599 341.122 640.785C340.582 643.159 341.846 646.463 344.59 646.892L344.581 646.889Z" fill="#FFABD1" fill-opacity="0.7"/>
</svg>
