<?xml version="1.0" encoding="UTF-8"?>
<svg id="Layer_2" xmlns="http://www.w3.org/2000/svg" viewBox="0 0 1152.31 463.83">
  <g id="_ëÎÓÈ_1" data-name="ëÎÓÈ_1">
    <path d="M1151.61,114.22c-1.07-8.08-3.72-19.24-4.62-19.69-.34-.17-.51-.87-.47-1.65.05-.77-.15-1.92-.48-2.63-.3-.66-1.66-3.83-3.03-7.07-1.35-3.18-3.91-8.02-5.63-10.74-3.26-5.16-16.12-20.36-17.38-20.43-.35-.02-1.81-1.32-3.21-2.86-4.31-4.74-10.54-9.59-16.21-12.7-2.04-1.12-4.36-2.43-5.11-2.9-3.82-2.44-13.67-8.05-14.3-8.15-.35-.02-1.59-.5-2.75-1.08-1.1-.54-2.81-1.22-3.78-1.49-.9-.19-2.62-.87-3.78-1.49-3.39-1.79-4.79-2.26-5.43-2.15-.29.05-.89-.33-1.35-.92-.39-.59-2.71-1.67-5.2-2.48-2.48-.81-5.09-1.92-5.9-2.53-.81-.54-2.33-.98-3.46-.91-1.13,0-2.66-.3-3.4-.76-.75-.4-2.76-1.01-4.5-1.25-1.74-.24-3.4-.76-3.8-1.21-.33-.37-2.21-.73-4.17-.88-1.89-.15-4.73-.78-6.18-1.42-1.5-.66-2.97-1.02-3.26-.82-.36.12-5.66-.69-11.92-1.89-14.19-2.74-18.31-3.14-21.8-2.47-1.77.34-2.9.25-3.15-.18-.44-.87-13.2-1.71-23.2-1.43-3.67.1-8.87.18-11.62.24-6.34.12-10.43.5-14.49,1.12-1.77.27-4.52.33-6.13.2-1.61-.13-3.11.09-3.41.5-.24.33-2.14.58-4.18.46-2.03-.12-3.94-.02-4.24.24-.3.33-.8.52-1.02.57-.64.03-3.9.66-7.96,1.43-1.77.34-3.41.57-3.68.42-.69-.25-7.88,1.23-9.54,1.97-.79.31-3.44.98-6,1.48-9.33,1.81-12.35,2.5-17.41,4.26-2.82.98-6.53,2.05-8.3,2.4-1.79.35-4.07,1.1-5.15,1.53-1.08.5-3.66,1.37-5.74,1.85-2.06.47-5.37,1.43-7.38,2.24-1.95.79-5.39,2.01-7.55,2.72-2.15.72-5.54,1.98-7.55,2.79-1.95.79-4.02,1.45-4.52,1.42-.56-.03-1.85.31-2.86.82-3.18,1.36-8.57,3.44-8.99,3.41-.49-.03-18.37,7.13-19.95,7.98-1.61.86-7.08,3.1-7.57,3.08-.21-.01-1.66.68-3.26,1.57-1.6.89-3.19,1.57-3.61,1.55-.42-.02-1.94.66-3.46,1.49-1.53.83-3.76,1.69-5.03,1.89-1.35.21-2.58.76-2.82,1.31-.24.55-.68.8-1.02.57-.4-.38-10.13,3.71-18.31,7.58-.8.38-3.32,1.42-5.62,2.27-2.3.85-4.35,1.99-4.58,2.48-.26.54-1.18.85-2.09.79-.91-.05-2.64.55-3.81,1.33-1.24.7-2.47,1.33-2.89,1.31-.35-.02-3.02,1.09-5.91,2.47-2.89,1.38-5.49,2.49-5.84,2.47-.28-.02-.64.17-.8.45-.09.35-2.85,1.65-6.01,2.95-8.88,3.66-10.51,4.42-14.36,6.2-1.94.89-3.82,1.61-4.17,1.59-.35-.02-1.52.69-2.56,1.61-1.1.85-2.84,1.73-3.98,1.88-1.07.22-2.66.82-3.6,1.48-2.29,1.6-18.78,9.52-19.69,9.47-.99.01-3.03,1.37-3.37,2.27-.09.35-1.69,1.07-3.54,1.55-2.94.77-7.83,2.85-10.96,4.64-3.13,1.79-10.12,4.68-11.1,4.63-.56-.03-1.44.55-1.98,1.29-.54.74-1.48,1.32-2.04,1.29-.63-.04-1.67.52-2.4,1.27-.69.72-1.83,1.3-2.47,1.26-.63-.04-3.14.72-5.59,1.71-2.38.97-5.12,2.09-6.12,2.46-1.01.36-3.75,1.69-6.15,2.88-3.47,1.71-4.83,2.02-6.78,1.57-1.32-.3-2.7-.79-3.1-1.1-.33-.3-2.4-1.05-4.48-1.67-2.07-.61-4.76-1.61-5.99-2.18-1.16-.63-3.51-1.33-5.18-1.57-1.74-.25-4.14-1.17-5.44-2.01-2.22-1.43-8.79-3.75-9.65-3.38-.22.13-.97-.27-1.57-.87-.6-.6-1.97-1.17-3.01-1.37-2.24-.27-18.67-5.52-20.23-6.46-.61-.32-2.28-.87-3.66-1.2-1.39-.33-2.48-.92-2.46-1.2.02-.28-1.42-.93-3.22-1.45-10.3-3.01-12.17-3.6-12.83-4.34-.4-.45-1.43-.86-2.2-.9-.84-.05-2.84-.61-4.57-1.25-1.65-.61-10.21-3.54-11.45-3.98-1.17-.41-3.11-.96-4.22-1.16-1.11-.28-3.52-1-5.39-1.72-14.54-5.64-21.85-7.68-23.23-6.99-.29.19-1.06.02-1.74-.38-3.63-2.14-5.62-2.87-16.72-6.46-2.07-.67-5.2-1.39-6.94-1.67-1.75-.28-3.96-.85-4.92-1.27-2.34-1.02-14.99-4.74-17.29-5.02-1.05-.13-3.19-.7-4.85-1.2-3.31-1-5.52-1.65-21.41-5.68-5.89-1.49-11.86-2.94-13.18-3.16-8.08-1.36-10.24-1.79-11.47-2.43-1.84-.95-16.45-3.78-17.18-3.4-.36.19-1.05-.06-1.59-.51-.54-.45-1.23-.7-1.59-.51-.29.12-1.83-.04-3.35-.48-4.91-1.42-6.79-1.82-9.99-2.34-1.75-.28-3.97-.71-5.01-1-2.15-.59-6.32-1.35-11.7-2.09-9.42-1.31-16.58-2.57-21.52-3.72-1.73-.4-3.48-.63-3.98-.44-.5.18-1.96-.11-3.2-.61-1.24-.49-5.34-1.23-9.12-1.66-3.84-.44-7.19-.91-7.46-1.14-.34-.23-4.1-.8-8.51-1.27-4.33-.46-10.07-1.09-12.79-1.45-14.66-1.95-53.28-4.59-58.15-4.03-1.14.13-6.83.13-12.66-.04-5.76-.16-11.66-.15-13.01-.06-1.34.1-4.37.19-6.7.31-10.57.55-30.66,2.21-38.54,3.45-2.91.46-5.6.73-6.01.56-.34-.16-1.34.06-2.21.43-.87.44-3.71.98-6.33,1.25-2.69.27-5.03.62-5.32.74-.44.26-2.15.57-7.46,1.32-3.83.54-9.63,2.1-10.65,2.82-.45.32-2.92.66-5.6.8-3.04.16-5.39.66-6.63,1.51-1.03.71-2.04,1.15-2.23.85-.2-.22-.76-.19-1.2.14-.44.33-3.01,1.11-5.8,1.77-11.11,2.65-30.91,12.55-44.22,22.32-9.33,6.85-17.24,16.16-19.49,22.92-.25.76-1.06,2.69-1.73,4.26-3.12,7.36-1.59,18.78,2.65,18.52,1.7-.1,1.93-.45,2.57-4.28,1.52-9.06,1.81-10.15,2.9-11.09.6-.52,1.35-1.68,1.7-2.57.32-.83,1.86-3.28,3.48-5.42,1.65-2.17,3.15-4.6,3.49-5.49.26-.83,1.53-2.01,2.9-2.64,1.31-.61,3.8-2.45,5.51-4.04,1.71-1.59,3.55-2.89,4.11-2.86.56.03,1.22-.42,1.53-.97.25-.62,1.77-1.68,3.38-2.41,1.58-.71,3.41-1.7,4-2.23.66-.52,2.48-1.7,4.09-2.57,1.66-.9,3.14-1.86,3.36-2.13.84-1,10-5.04,11.33-4.97.84.05,1.64-.33,1.88-.8.16-.41,1.98-1.29,3.98-1.88,2-.59,4.03-1.52,4.55-2.06.45-.54,1.25-.91,1.74-.88.42.02,1.79-.37,3.01-.88,1.16-.48,3.15-.94,4.42-1.01,1.2-.07,2.63-.48,3.08-.88.52-.46,1.59-.75,2.5-.7.91.05,1.63-.19,1.65-.54.04-.63,3.02-1.09,8.87-1.38,1.98-.1,3.83-.48,4.2-.81.44-.33,1.3-.56,2-.52.7.04,1.85-.16,2.56-.48,2.12-.96,10.68-2.24,11.78-1.77.61.26,1.12.14,1.14-.28.02-.42,1.38-.69,3.13-.59,1.75.1,3.39-.15,3.62-.49.23-.41,1.58-.61,2.99-.53,1.4.08,3.52-.07,4.73-.36,5.5-1.29,8.89-1.72,12.62-1.65,3.09.05,4.31-.23,5.14-1.25.92-1.13,1.25-1.17,2.76-.26.94.56,2.13.82,2.57.57,1.95-1.11,11.56-1.7,12.92-.86,1.28.79,1.78.72,8.6-.34,1.99-.31,8.32-.39,14.08-.23,5.83.16,12.16.14,14.07-.02,1.98-.17,5.42-.11,7.74.03,2.31.14,27.06,1.65,28.39,1.73,1.33.08,5.31.56,8.73,1,3.49.45,8.18.94,10.49,1.11,2.38.18,4.82.75,5.69,1.39,1.1.81,2.06,1.01,3.98.58,1.37-.31,2.63-.41,2.82-.19.13.22,2.22.48,4.54.62,2.38.14,4.47.54,4.66.91.19.36.6.53.89.4.73-.38,18.57,2.49,19.52,3.11.33.3,3.89.9,7.8,1.3,3.91.4,7.4.93,7.67,1.15.27.16.7.04,1.01-.36.31-.4.81-.52,1.14-.29,1.57,1.12,8.48,2.89,14.07,3.57,3.35.41,6.42.94,6.76,1.17.33.3,1.94.57,3.62.7,1.61.13,3.27.54,3.74.92.47.38,1.09.56,1.46.37.36-.19,1.62.02,2.79.44,1.25.35,2.36.49,2.59.15.23-.27,1.55-.05,2.92.59,1.44.58,3.8,1.17,5.2,1.29,1.4.12,2.78.51,2.97.95.26.44.88.61,1.45.44.57-.18,2.8.17,4.95.71,2.22.56,5.14,1.14,6.47,1.29,1.33.15,2.93.45,3.48.7,1.72.78,9.14,2.5,11.45,2.64,1.19.07,2.44.42,2.83.87.33.37,2.47.99,4.78,1.33,2.3.35,4.95.78,5.92,1.05.97.2,2.91.62,4.45.96,1.45.32,2.98.73,3.32.97,1.09.76,11.82,3.65,12.67,3.41.36-.12,2.43.56,4.48,1.53,2.05.96,5.09,1.88,6.71,2.01,1.68.13,3.34.62,3.8,1.14.46.52,1.84.95,3.04,1.02,1.26.07,2.51.43,2.69.86.19.36,2.06.82,4.1.94,1.96.11,3.91.51,4.31.96.53.59,10.66,4.07,13.73,4.6.76.13,1.87.46,2.42.77.89.4,7.94,2.57,15.2,4.69.97.34,2.05,1.03,2.44,1.62.52.8.86.89,1.25.28.46-.61.94-.57,2.02.26,1.41,1.08,3.7,1.68,10.03,2.84,1.67.31,3.67,1.06,4.48,1.67.81.61,2.6,1.31,3.92,1.57,2.23.43,4.02,1.02,8.98,2.78.96.34,2.06.82,2.4,1.13.4.31,2.2.87,4.01,1.22,1.81.35,5.12,1.43,7.25,2.32,2.13.9,4.94,2.01,6.19,2.4,1.24.39,2.61,1.07,3.08,1.45.47.45,2.05,1.03,3.58,1.4s3.18,1.03,3.64,1.48c.47.38,2.33.94,4.15,1.23,1.81.28,4.67,1.14,6.35,2.06,1.66.9,4.32,1.91,5.85,2.17,1.53.26,5.11,1.46,7.94,2.57,2.81,1.11,6.21,2.23,7.52,2.48,1.33.25,3.47,1.16,4.66,2.03,1.23.89,2.73,1.43,3.3,1.25.71-.17,1.05.13,1,.97-.07,1.26-3.24,3.37-7.4,4.98-1.08.42-2.17,1.07-2.41,1.48-.31.4-1.24.7-2.08.65-.84-.05-2.35.5-3.38,1.21s-2.12,1.28-2.4,1.27c-.35-.02-1.64.62-2.9,1.45-1.3.86-3.7,2.05-5.36,2.64-1.72.62-3.1,1.3-3.12,1.58-.02.28-1.1.68-2.44.84-1.35.17-2.86.75-3.39,1.35-.52.53-3.06,1.86-5.65,2.84-2.59.97-5.33,2.08-5.98,2.39-5.72,2.76-11.98,5.22-12.96,5.08-.7-.1-1.27.14-1.29.49-.02.42-1.76,1.39-3.79,2.24-2.08.88-5.4,2.38-7.31,3.44-1.87,1.04-4.27,2.01-5.19,2.16-.99.16-1.79.6-1.81.95-.02.35-.6.6-1.23.56-.63-.04-3.5.84-6.31,2.02-2.75,1.16-6.84,2.7-9,3.48-2.16.79-4.63,1.89-5.5,2.56-.83.64-1.97,1.15-2.6,1.11-.63-.04-1.5.4-2.02.94-.52.53-1.46.97-2.16.93-.63-.04-2.07.51-3.03,1.23-1.02.64-1.96,1.08-2.16.93-.13-.22-2.37.62-4.96,1.82-4.5,2.09-10.63,4.69-14.35,5.98-1.01.35-3.09,1.09-4.67,1.7-6.25,2.39-8.34,3.03-9.32,2.97-.56-.03-1.45.54-2.05,1.29-1.63,2.06-7.66,2.29-10.15.39-1.01-.77-4.26-2.86-7.12-4.57-16.56-9.88-19.57-11.77-19.55-12.19.02-.35-.74-.61-1.65-.66-.98-.06-2.55-.92-3.62-1.9-1.07-.98-3.11-2.08-4.5-2.44-1.39-.36-2.55-.85-2.54-1.13.04-.63-7.72-5.04-11.24-6.35-2.96-1.1-4.74-1.97-10.74-5.13-2.11-1.11-4.24-2.08-4.73-2.11-.49-.03-1.38-.5-1.91-1.1-.6-.53-2.8-1.61-4.85-2.39-2.07-.79-4.4-1.74-5.15-2.13-4.69-2.42-8.68-4.15-12.01-5.2-2.06-.65-4.97-1.76-6.47-2.49-1.44-.71-3.44-1.33-4.42-1.38s-2.71-.47-3.89-.93c-8.33-3.28-12.13-4.33-14.57-4.72-1.53-.25-4.59-1.01-6.79-1.73-2.22-.73-5.12-1.42-6.45-1.5s-4.54-.54-7.11-1.05c-15.93-3.18-51.33-6.12-55.86-4.67-1.14.37-3.2.57-4.53.44-2.52-.25-12.37,1.04-20.55,2.6-2.56.49-5.41,1.02-6.4,1.17-.99.15-2.78.6-4.07,1.1-1.23.48-2.44.84-2.72.83-.28-.02-1.49.35-2.72.83-1.29.5-4.08,1.34-6.23,1.89-2.13.54-4.69,1.68-5.7,2.48-1.05.83-2.2,1.56-2.55,1.54-.77-.05-8.95,6.08-10.89,8.16-.68.73-1.9,2.42-2.68,3.71-.78,1.29-1.62,2.51-1.85,2.71-2.14,1.63-4.01,13.13-3.23,20.28.59,5.38,2.54,10.63,4.02,10.72.42.02.97,1.12,1.12,2.46.17,1.49,1.69,4.01,3.83,6.7,1.92,2.41,4.57,5.77,5.9,7.45,1.36,1.72,4.18,4.39,6.27,5.92,2.09,1.53,5.58,4.15,7.75,5.8,2.14,1.63,5.62,3.83,7.8,4.96,2.12,1.1,5.72,3.04,7.98,4.27,2.24,1.21,5.55,2.64,7.41,3.25,1.8.59,3.44,1.4,3.63,1.69.19.36,1.51.72,2.98.81,1.4.08,2.92.52,3.39,1.04.86.96,1.98,1.14,8.12,1.95,2.31.31,5.63,1.11,7.35,1.84,1.99.83,4.85,1.24,8.01,1.31,2.67.06,5.19.3,5.52.6.94.69,7.87,1.46,16.08,1.64,1.55.04,4.56.23,6.66.39,2.1.16,5.47.26,7.38.15,7.84-.43,9.46-.48,16.48-.37,4.43.06,7.54-.26,7.92-.73.23-.41,2.37-.77,4.62-.79,8.66-.05,12.67-.34,14.05-.87,1.35-.51,3.27-.84,9.5-1.27,1.27-.09,3.85-.65,5.7-1.28,1.81-.63,5.08-1.47,7.21-1.76,5.17-.7,9.23-1.58,11.11-2.31.79-.31,1.72-.47,2.13-.37.35.09,1.56-.1,2.63-.48,1.16-.41,2.5-.7,2.99-.67.56.03,2.05-.32,3.35-.79,2.93-1.06,8.51-2.47,12.71-3.2,3.05-.53,3.84-.76,7.87-2.21,1.01-.36,3.07-.98,4.65-1.35,1.56-.36,3.29-.94,3.81-1.33.44-.33.87-.44.85-.16-.01.21,1.2-.16,2.65-.83,1.51-.7,3.03-1.23,3.31-1.21.77.05,4.29-1.23,10.07-3.7,2.31-.99,4.82-1.76,5.52-1.72.63.04,1.64-.33,2.09-.86.45-.54,2.25-1.2,4.03-1.52,1.71-.31,3.36-.86,3.59-1.27.77-1.08,3.74-.58,6.55,1.09,1.48.88,2.78,1.78,2.9,2.07.05.35,1.53,1.36,3.24,2.37,4.27,2.52,7.86,5.04,9.8,6.9.93.9,2.15,1.67,2.71,1.71,1.4.08,6.58,3.77,7.63,5.51.44.73,1.4,1.35,2.03,1.38,1.4.08,4.52,1.91,8.85,5.02,1.61,1.16,3.45,2.31,4.07,2.63.96.41,5.88,3.55,16.91,11.61,1.23.9,2.65,1.63,3.07,1.66.49.03,1.58.73,2.51,1.55.94.83,2.23,1.54,2.86,1.57.63.04,1.99.88,3.06,1.87,1.61,1.49,4.21,3.27,12.06,7.95,3.45,2.06,14.65,8.1,14.8,8.04.15-.13,1.44.72,2.92,1.79,1.49,1.07,4.37,2.39,6.37,2.98,1.95.57,3.58,1.34,3.56,1.62-.02.28,1.33,1.27,3.04,2.22l3.13,1.73-1.32,2.17c-.7,1.15-2.92,4.19-4.96,6.67-2.04,2.48-4.26,5.52-4.83,6.82-.63,1.23-1.86,2.84-2.67,3.5-.89.72-1.58,1.81-1.63,2.58-.04.7-.35,1.25-.63,1.23-.56-.03-2.35,2.82-4.41,6.78-.24.55-1.47,2.52-2.72,4.41-4.5,6.8-11.94,20.91-13.04,24.56-.33,1.11-1.25,3.3-2.04,4.81-2.63,5.04-4.91,11.53-6.83,19.3-1.03,4.16-2.29,9.01-2.74,10.74-.83,3.19-2.28,13.02-2.57,17.44-.36,5.61.12,16.81.89,20.8.45,2.34.89,5.82.95,7.79.06,1.9.44,4.46.86,5.68.5,1.15,1.44,4.23,2.13,6.81.69,2.57,2.15,6.26,3.24,8.28,1.07,1.97,1.87,4.19,1.76,4.82-.04.7.28,1.28.84,1.32.84.05,4.33,4.73,7.1,9.7.64,1.16,1.57,1.98,2.08,1.81.57-.19,1.73.53,2.72,1.57,1.72,1.79,2.76,2.2,5.22,2.13.99-.08,1.05-.49.72-2.7-.22-1.49-.82-2.79-1.3-2.96-1.11-.4-11.77-12.93-11.72-13.77.02-.35-.58-1.81-1.36-3.25-1.55-2.86-4.19-10.93-4.28-13.48-.03-.92-.31-1.85-.51-2.14-.27-.23-.43-1.15-.38-1.99.05-.84-.11-1.76-.37-2.06-.27-.23-.5-.94-.54-1.51-.04-.5-.24-2.33-.4-4.03-.57-5.93-.6-8.12-.41-17.12.18-8.29,1.56-18.49,2.8-20.24.68-.95,1.04-2.26,1.72-6.58.33-2.09.88-4.17,1.25-4.57.38-.4.92-1.91,1.18-3.38.26-1.46,1.02-3.18,1.7-3.84.96-.94,1.06-1.27.36-1.32-.77-.05-.76-.26-.09-.85.52-.46.93-1.49.98-2.26.1-1.68,2.87-6.94,3.96-7.51.36-.19.77-1.15.82-2.06s.46-1.87.82-2.06c.43-.19.77-1.15.83-2.13.1-1.68,11.52-22.54,12.68-23.18.36-.12.47-.75.22-1.32-.18-.57.06-1.05.41-1.03.42.02,2.18-2.19,3.94-4.9,5.28-8.12,13.79-19.31,16.91-22.09,1.71-1.52,2.57-1.77,5.58-1.5,2.03.18,3.62.7,3.8,1.21.11.5.86.96,1.63,1.01.77.05,2.49.77,3.84,1.7,1.9,1.3,2.59,1.49,3.4.83.88-.58,1.22-.42,1.72.66.69,1.51,4.51,3.5,5.6,2.93.29-.19,1.13,0,1.81.39,1.09.63,8.33,3.09,11.31,3.83.56.1,2.14.82,3.64,1.55,1.44.71,3.02,1.37,3.58,1.41.49.03,1.11.35,1.29.78.19.36,1.08.7,2,.68.85-.02,2.45.33,3.61.84,2.56,1.14,8.35,2.71,14.14,3.57,2.51.37,4.8.91,5.21,1.15.33.3,1.93.65,3.47.84,2.8.33,18.77,3.84,18.75,4.12,0,.07,3.49.42,7.69.8,4.27.39,10.28,1.06,13.35,1.48,3.91.54,5.89.56,6.26.01.32-.47.8-.52,1.27-.07.47.38,3.4.83,6.63.95,3.23.12,6.02.49,6.21.86.19.36.82.47,1.46.23.64-.17,2.63-.41,4.39-.52,1.77-.11,4.17-.23,5.3-.32,4.04-.33,13.4-.52,17.11-.27,1.96.13,3.66-.07,3.68-.42.02-.42.81-.47,1.77-.18,1.32.4,1.74.24,1.79-.53.05-.77.56-.98,1.66-.68,2.92.8,4.31.89,6.32.23,1.08-.43,2.22-.64,2.49-.56,1.87.46,9.53-.64,10.29-1.58.9-1,3.74-2.67,4.51-2.62.21.01.32.51.28,1.14-.05.84.5,1.01,2.48.85,1.35-.2,3.13-.59,3.85-.9.72-.31,1.85-.39,2.4-.14.69.31,1.26,0,1.59-.68.39-.82,1.04-.99,2.15-.65.9.33,1.67.31,1.69-.04.02-.35,1.09-.57,2.35-.5,1.19.07,3.68-.42,5.41-1.16,1.73-.74,3.38-1.21,3.65-.98.27.16,1.22-.27,2.1-1,1.26-1.04,1.82-1.16,2.56-.48.66.61,1.5.54,3.53-.15,1.5-.51,3.36-.86,4.27-.81.84.05,2.28-.5,3.24-1.22.96-.72,2.19-1.28,2.82-1.24,1.96.11,7.6-1.92,8.91-3.28.77-.79,2.33-1.34,3.46-1.35,1.2,0,2.57-.55,3.09-1.16.62-.73,1.47-1.04,2.08-.72.62.25,1.62.02,2.28-.5.59-.53,1.38-.76,1.79-.53.34.23.71-.03.74-.66.04-.63.33-.96.74-.66.33.24,1.18.21,1.91-.17,3.75-1.61,10.81-4.36,11.3-4.33.77.05,3.15-2.14,3.57-3.31.24-.55.83-1.01,1.4-1.04.56.03,2.04-.02,3.3.05,1.69-.04,2.51-.4,3.2-1.71.5-.95,1.29-1.61,1.77-1.37.48.24,1.06-.08,1.3-.63s.9-.93,1.46-.9c.56.03,1.73-.74,2.56-1.68.83-.94,1.84-1.5,2.25-1.2.87.63,4.72-1.27,7.39-3.65,1.11-.99,2.21-1.77,2.49-1.75.84.05,8.52-5.36,10.42-7.34.96-1.01,2.21-1.77,2.77-1.74.49.03,2-.82,3.34-1.84,1.31-1,2.79-1.95,3.29-2.06,1.22-.35,8.33-6.48,8.37-7.25.02-.35.46-.61,1.02-.57.56.03,1.79-.89,2.79-2.02.96-1.08,3.98-4.04,6.79-6.57,2.77-2.49,5-4.91,5.02-5.26.02-.35,1.22-1.55,2.62-2.66,1.4-1.11,2.6-2.31,2.62-2.66.02-.42.69-1.01,1.49-1.39.8-.38,1.48-1.18,1.51-1.81.04-.63,1.57-2.65,3.36-4.52,2.93-3.06,3.72-3.53,7.41-4.07,2.48-.36,5.01-.27,6.19.08,1.17.42,3.69.53,5.6.4,1.97-.14,8.01.08,13.41.5,5.39.42,10.95.5,12.29.3,1.35-.2,2.75-.12,3.15.25s1.18.43,1.75.1c1.54-.87,4.54-.58,5.46.46.59.67.8.68.84.05.04-.7.38-.65,1.48.02,1.07.65,1.58.66,2.04.05.31-.4,2.5-.7,5.17-.61,2.53.08,4.44-.09,4.31-.38-.19-.36.43-.25,1.46.23,1.78.82,8.05.68,8.1-.16.06-.98,14.44-2.74,19.98-2.42.98.06,3.76-.39,6.11-.98,2.43-.61,5.4-.92,6.79-.66,1.94.37,2.65.15,3.29-.93.61-1.03,1.26-1.16,2.93-.74,1.24.31,2.38.21,2.68-.19.23-.41,2.43-.72,4.82-.7,3.51.03,4.57-.23,5.57-1.43.67-.81,1.69-1.24,2.24-.99.55.24,1.54.25,2.25,0,1.74-.63,3.01-.96,5.7-1.21,1.41-.13,2.8-.89,3.56-1.9.85-1.14,1.42-1.39,1.88-.88.92,1.04,3.94,1.22,3.99.3.05-.84,4.22-2.39,6.33-2.3.84.04,2.06-.37,2.59-.9.59-.53,2.11-1.28,3.48-1.7,1.29-.49,2.68-1.25,2.99-1.72.31-.47,1.03-.85,1.53-.83.49.03,1.73-.44,2.67-1.11.97-.7,2.75-1.4,3.89-1.6,2.48-.44,9.74-4.07,9.78-4.92.02-.28.45-.54,1.01-.5.56.03,1.81-.74,2.78-1.81.91-1,2.89-2.5,4.28-3.34,2.55-1.54,9.54-7.88,9.66-8.72.02-.28,1.97-2.26,4.34-4.46,6.96-6.45,8.35-8.09,8.43-9.36.04-.63.61-1.78,1.2-2.46.62-.72,1.16-1.76,1.19-2.32.03-.49.93-2.54,1.95-4.46,2.71-5.11,4.7-10.63,5.2-14.26.24-1.74,1.06-7.25,1.78-12.35,1.19-8.44,1.21-9.85.23-17.22ZM422.88,201.9c-.56-.03-2.4.45-4.07,1.1-1.64.64-3.52,1.27-4.09,1.45-.58.25-1.59.68-2.17,1-2.33,1.27-7.71,3.14-8.9,3.07-.7-.04-2.28.33-3.49.78-2.83,1.04-9.62,3.04-14.46,4.29-1.94.5-4.36,1.22-5.37,1.66-1.01.43-3.22,1.11-4.94,1.47-1.7.36-3.93.88-5,1.26-1.01.35-2.36.71-2.93.74-1.48.08-16.46,3.54-18.19,4.21-.79.24-2.85.64-4.62.79-2.89.24-7.87,1.34-11.76,2.55-.78.24-2.85.5-4.61.57-1.77.07-4.1.48-5.33.88-1.14.37-4.05.65-6.44.61-3.73-.06-7.44.5-10.93,1.68-1.37.46-1.22.49-16.2.39-21.73-.15-44.5-2.32-54.59-4.74-1.31-.31-2.92-.66-3.47-.77-.55-.17-1.52-.44-2.07-.75s-3.04-1.13-5.52-1.87c-2.5-.75-5.66-1.81-7.11-2.24-1.45-.44-2.99-.6-3.42-.41-.44.26-.57.18-.34-.23.31-.4-.49-1.17-1.73-1.72-1.16-.51-4.38-2.16-7.1-3.65s-5.19-2.7-5.54-2.72c-.35-.02-3.11-1.96-6.08-4.22-3.02-2.3-5.59-4.2-5.8-4.21-.21-.01-3.41-3.35-7.09-7.45-9.09-10.13-11.57-16.65-9.47-24.47.89-3.33,3.09-8.26,3.72-8.22.21.01,1.05-1.06,1.76-2.36.71-1.3,1.62-2.37,2.04-2.34.35.02.65-.31.53-.67-.05-.42.7-1.08,1.64-1.52.94-.37,1.68-1.03,1.56-1.39-.1-.71,2.01-1.96,3.64-2.11.56-.05,1.58-.61,2.19-1.28.6-.67,1.48-1.17,1.83-1.16,1.9.08,6.18-1.81,6.57-2.92.27-.75,1.13-1.2,2.18-1.14.91.05,1.7-.18,1.72-.53.02-.35,1.08-.5,2.34-.29,1.96.18,5.81-.94,6.95-2.13.52-.54,2.89-1.19,5.01-1.47,1-.13,2.07-.51,2.44-.84.45-.4,1.01-.36,1.47.09.47.45,2.15.37,4.51-.09,2.06-.4,4.18-.53,4.73-.29s.98.13,1-.29c.06-1.05,4.26-2.06,5.56-1.29.68.4,1.8.46,2.59.22.79-.24,3.03-.21,4.92.08,1.95.29,4.91.32,6.68.11,3.2-.38,17.35.45,31.54,1.98,8.39.91,18.49,2.51,20.56,3.24.76.27,2.63.74,4.16,1.02,3.2.58,3.95.77,12.97,3.22,3.74,1.01,7.62,2.02,8.66,2.27,2.21.53,6.35,1.99,15.01,5.52,3.43,1.4,7.16,2.78,8.27,3.02,1.19.25,2.42.77,2.75,1.08.4.37,2.66,1.42,5.14,2.41,2.47.99,5.08,2.07,5.84,2.45,2.98,1.5,9.61,4.95,10.72,5.62.67.41,1.72.73,2.28.77.63.04,2.27.91,3.61,1.97,1.34,1.06,2.84,1.92,3.33,1.95.56.03,1.46.35,2.14.76.62.37,2.98,1.68,5.25,2.91,9.97,5.42,13.82,7.52,17.02,9.65,1.89,1.25,6.15,3.92,9.5,5.9,3.38,2,6.66,4.04,7.4,4.65,1.35,1.12.84,2.51-.84,2.41ZM455.58,198.54c.31-.54.75-.8,1.09-.57.34.23.46.74.22,1.07-.74,1.03-1.79.6-1.31-.5ZM569.53,267.39c-2.58,2.26-5.2,4.84-5.9,5.78-1.66,2.24-2.88,1.98-12.43-2.84-1.1-.55-2.94-1.5-4.1-2.07-1.1-.54-2.53-1.27-3.07-1.66-.54-.38-1.77-1.09-2.72-1.57-.96-.48-2.85-1.53-4.22-2.36-1.35-.81-3.15-1.52-3.92-1.57-.77-.05-2.22-.88-3.27-1.88-1.08-1.03-3.32-2.47-5.02-3.25-1.66-.76-4.49-2.4-6.26-3.6-1.74-1.18-3.67-2.18-4.23-2.22-.56-.03-1.04-.34-1.01-.69.02-.35-1.86-1.73-4.18-3.06-4.42-2.52-6.75-3.97-7.32-4.79-.2-.29-2.36-1.63-4.89-2.96-2.59-1.36-4.62-2.8-4.6-3.15.02-.42-.65-1.08-1.46-1.49-.9-.46-2.46-1.39-3.6-2.18-1.09-.75-2.85-1.71-3.89-1.99-.97-.34-2.66-1.36-3.73-2.33-1-.91-2.76-2.19-3.91-2.83-1.1-.61-2.23-1.54-2.49-1.97-.25-.51-1.28-1.11-2.24-1.4-1.04-.32-4.62-2.73-8.06-5.4-3.43-2.66-8.44-6.05-11.1-7.47-4.85-2.6-5.76-4.01-3.36-5.12,3.02-1.4,7.77-2.99,8.54-2.95.49.03,1.93-.68,3.18-1.5,1.3-.86,3.63-1.88,5.13-2.3,1.58-.45,4.8-1.71,7.2-2.82,6.91-3.18,12.05-5.13,13.03-5.08.49.03,1.29-.42,1.81-.95.52-.53,1.32-.98,1.81-.95.56.03,3.49-1.02,6.61-2.36,3.09-1.32,10.04-4.24,15.36-6.49,13.52-5.69,20.58-9.07,19.25-9.15-.63-.04-1.1-.42-1.08-.77.07-1.19,2.25-1.54,2.84-.47.61,1.11,2.21.6,9.82-3.08,1.3-.63,2.88-1.17,3.37-1.14s2.25-.74,3.9-1.81c1.64-1.06,4.06-2.08,5.48-2.21,1.35-.2,2.93-.81,3.39-1.35.97-1,6.53-3.35,7.79-3.27.42.02.78-.17.8-.52.02-.28,1.76-1.15,3.85-2.03,2.03-.85,4.11-1.73,4.48-2.06.44-.33,3.04-1.67,5.81-3.04,2.82-1.4,5.58-2.77,6.16-3.09.58-.32,3.04-1.27,5.4-2.15,2.39-.89,6.55-2.58,9.29-3.75,5.55-2.36,7.52-2.42,13.05-.57,2.07.69,4.06,1.57,4.39,1.94.4.45,1.78.88,3.04.95,1.26.07,2.85.46,3.53.91,2.95,1.92,6.28,3.25,6.86,2.93.36-.19,1.94.34,3.45,1.19,1.56.88,3.56,1.62,4.48,1.67.91.05,1.88.32,2.14.62.53.59,6.75,2.45,11.13,3.32,1.53.31,3.39.84,4.15,1.23,6.25,3.19,8.9,4.18,11.35,4.39.56.1,1.64.6,2.33,1.12.73.55,2.13.82,3.27.68,1.27-.15,2.04.05,2.01.54-.02.42.73.82,1.64.87.98.06,1.95.4,2.13.83.19.36,1.57.8,3.04.88,1.47.09,3.06.6,3.52,1.19.39.59,1.21.91,1.79.74.57-.18,2.3.29,3.95,1.07,1.57.74,2.88,1.29,2.88,1.22,0-.07.76.26,1.72.66.96.48,3.52,1.15,5.75,1.53,2.16.37,3.95,1,3.93,1.36-.02.35.45.66,1.01.69.56.03,1.04.27,1.02.55-.04.63-7.27,4.01-8.39,3.94-.35-.02-1.96,1.01-3.51,2.26-1.55,1.25-3.44,2.26-4.14,2.22-.7-.04-1.49.19-1.72.6-.23.34-.95.65-1.58.61-.63-.04-1.5.33-1.95.87-.45.54-2.78,1.81-5.17,2.93-2.39,1.13-7.91,4.11-12.35,6.66-15.37,8.86-18.41,10.53-19.18,10.49-.42-.02-.79.24-.8.52-.03.56-4.11,3.39-9.53,6.62-1.52.91-4.68,2.96-7.03,4.65-2.35,1.69-7.13,4.98-10.55,7.26-3.46,2.31-7.39,5.21-8.82,6.45-1.39,1.2-4.73,3.73-7.37,5.69-12.68,9.42-30.41,25.62-32.32,29.35-.46.9-2.86,3.44-5.4,5.66ZM916.24,223.5c-1.11,1.83-1.97,3.68-2,4.1-.03.49-.47.89-.89.86-.49-.03-1.96.93-3.29,2.13-14.35,12.93-24.05,21.62-25.8,22.62-3.4,1.94-5.49,3.69-5.55,4.67-.03.49-.54.88-1.1.85-1.05-.06-3.78,1.2-6.15,2.95-.6.44-2.86,2.01-4.91,3.44-2.13,1.49-3.9,3.01-3.93,3.36-.02.35-.74.57-1.58.54-1.9-.08-4.16,1.3-4.23,2.57-.03.49-.46.68-1.01.43-.55-.24-1.84.25-2.95,1.16-1.03.86-2.27,1.56-2.62,1.54-.35-.02-1.52.69-2.56,1.61-1.04.92-2.63,1.67-3.62,1.69-.92.01-1.72.46-1.74.95-.03.49-.47.69-1.01.43-.48-.23-2.69.41-4.8,1.41-6.28,2.97-9.64,4.62-10.43,5.16-.37.25-1.72.7-3.01.88-1.2.17-3.58,1.21-5.2,2.23-1.67,1.05-3.55,1.83-4.19,1.8-.7-.04-2.85.61-4.8,1.48-1.95.87-3.96,1.53-4.45,1.5-.49-.03-1.59.68-2.35,1.62-.98,1.07-1.71,1.38-1.95.94-.52-.93-4.99-.54-7.22.7-.88.49-2.23.85-2.93.81-.7-.04-1.92.31-2.65.83-.73.45-1.87.66-2.56.48-.69-.25-2.25,0-3.55.57-1.3.56-2.73.97-3.22.94-.49-.03-1.43.63-2.05,1.43-.9,1.15-1.34,1.26-2.14.51-.8-.75-2-.68-6.08.49-2.86.82-5.52,1.79-5.89,2.12-.52.46-1.22.49-2.04.02-.68-.46-1.87-.54-2.87-.24-1.51.46-9.23,1.35-13.46,1.68-.92.07-2.91.39-4.47.72-1.57.33-3.69.49-4.74.43-.98-.06-4.02.08-6.71.38-2.63.3-6.52.83-8.57,1.05-2.19.24-4.29.09-4.91-.29-.67-.41-1.8-.46-2.59-.15-.79.24-3.54.33-6.13.2-3.02-.14-5.07.13-5.67.72-.74.66-1.52.68-4.07-.1-1.73-.53-5.49-1.1-8.37-1.19-8.5-.29-11.37-.43-15.42-1.04-2.09-.32-5.37-.75-7.33-.99-12.57-1.57-16.73-2.38-38.61-7.39-7.98-1.83-9.64-2.27-17.99-5.06-3.59-1.2-7.94-2.64-9.66-3.17-1.73-.52-5.45-1.98-8.25-3.23-2.82-1.26-6.03-2.63-7.21-2.95-1.1-.3-2.69-1-3.5-1.54-.74-.61-2.73-1.43-4.24-2.01-1.59-.52-2.89-1.15-2.87-1.5.07-1.19,2.45-4.73,3.46-5.07.57-.19,1.94-1.49,2.99-2.99,1.03-1.47,3.97-4.66,6.53-6.93,2.56-2.28,6.08-5.5,7.73-7.08,3.77-3.61,18.78-16.09,21.59-18.01,1.11-.76,3-2.16,4.19-3.13,5.35-4.38,11.11-8.35,11.95-8.31.42.02.86-.23.88-.58.02-.35,1.8-1.71,3.91-3.08,2.06-1.34,4.17-2.78,4.62-3.18.44-.33,2.19-1.35,3.93-2.23,1.74-.88,3.84-2.25,4.75-3.1.87-.81,1.98-1.43,2.4-1.41.42.02.85-.16,1.01-.5.32-.68,14.78-9.83,15.49-9.79.21.01,1.87-.96,3.71-2.1,6.17-3.84,9.46-5.4,10.59-5.43.64-.02,1.45-.47,1.68-1.03.26-.61,1.49-1.54,2.79-2.02,2.51-.92,3.45-1.42,8.34-4.23,1.67-.96,3.34-1.7,3.76-1.68.42.02.79-.24.81-.59.02-.28,1.9-1.31,4.21-2.22,2.22-.87,6.06-2.6,8.45-3.8,2.39-1.2,4.85-2.32,5.42-2.5.57-.18,2.52-1.05,4.33-1.86,1.81-.81,3.32-1.49,3.39-1.49.07-.07,1.52.45,3.1,1.1,1.65.67,3.45,1.17,4.01,1.22,1.47.12,3.19.69,7.86,2.71,2.26.98,5.51,1.94,7.26,2.18,1.74.24,5.42,1.28,8.03,2.23,4.9,1.79,6.15,2.09,11.07,3.18,1.53.34,3.12.82,3.45,1.12.4.31,1.94.54,3.48.63,1.54.09,2.94.31,3.13.53.39.59,11.04,3.95,14.84,4.81,1.53.34,3.67,1.12,4.75,1.76,1.16.69,2.82,1.08,4.03.87,1.2-.14,3.16.24,4.52.9,1.3.63,3.3,1.25,4.43,1.31,1.05.06,2.64.45,3.54.84,1.71.75,6.64,1.97,9.78,2.4,1.05.14,2.08.47,2.35.7.19.29,1.44.58,2.64.65,1.19.07,2.44.35,2.71.65.26.37,1.79.7,3.4.83,4.41.36,10.96,1.54,11.63,2.02.62.44,8.87,2.3,12.5,2.84,1.33.2,5.08.86,8.29,1.47,3.27.62,6.07.92,6.22.79.22-.2.7-.02,1.11.35.86.77,11.49,3.28,12.56,2.99,2.08-.57,8.1-.09,8.05.68-.03.56,2.26.99,7.16,1.4,6.58.55,16.65,1.61,17.13,1.78.07.07-.74,1.5-1.81,3.27ZM933.62,198.2c-.33,1.45-.85,2.55-1.2,2.53-.9-.19-1.91,1.37-2.01,3.12-.05.84-1.36,2.73-2.85,4.27l-2.84,2.79-7.36-.43c-4.06-.31-8.96-.85-10.83-1.27-1.95-.44-4.4-.61-5.46-.39-1.07.22-2.04.16-2.24-.2-.25-.44-10.27-2.43-11.55-2.22-.57.04-11.85-1.79-19.09-3.16-3.41-.64-7.03-1.33-8-1.45-6.54-1.23-14.73-2.95-21.9-4.52-4.58-1-10.34-2.33-12.85-2.86-2.5-.53-5.98-1.37-7.7-1.86-1.74-.49-3.47-.84-3.83-.72-.35.05-1.53-.3-2.7-.79-1.09-.56-9.2-2.82-17.99-5.13-8.74-2.3-17.17-4.62-18.7-5.1-1.51-.47-4.09-1.05-5.77-1.25-1.6-.2-3.33-.69-3.8-1.14-.73-.68-4.53-1.91-7.74-2.42-.77-.12-3.26-.82-5.54-1.52-8.85-2.74-12.77-4.26-12.74-4.75.05-.77,4.08-2.78,8.33-4.09,2-.62,5.53-1.85,7.9-2.77,6.41-2.49,13.36-4.78,14.63-4.7.63.04,2.43-.46,4-1.1,3.93-1.6,7.55-2.86,9.69-3.37.99-.15,2.42-.56,3.22-.87,4.02-1.54,23.17-6.38,24.71-6.29.98.06,2.05-.16,2.49-.49.37-.33,3.08-.95,5.99-1.41,2.91-.46,15.2-2.49,16.05-2.58.78-.03,1.85-.31,2.28-.57.44-.26,4.26-.67,8.43-.98l10.46-.8c1.55-.12,4.59-.23,6.63-.32,2.12-.09,4.17-.39,4.47-.65.67-.59,20.56.81,28.74,1.82,2.65.33,5.02.79,5.35,1.09,1.42.93,7.35,2.06,7.79,1.44.63-.87,6.6,1.58,9.21,3.77,1.07.9,2.7,1.99,3.53,2.25.83.33,2.57,1.7,3.97,3.12,1.39,1.42,2.94,2.63,3.43,2.66.49.03.89.47.85,1.03-.03.56.68,1.66,1.55,2.41s1.78,2.21,2,3.14c.23,1,.78,2.3,1.24,2.89,2.89,3.75,2.38,18.88-1.18,29.83-.25.76-.75,2.55-1.08,4.02ZM1142.61,143.03c-.69,1.16-1.27,2.46-1.3,2.95-.03.49-.93,2.62-2.03,4.66-1.1,2.05-1.99,4.03-2.01,4.38-.02.42-.32.68-.74.66-.35-.02-.73.38-.75.87-.07,1.26-2.27,5.14-3.21,5.58-.37.26-.69,1.01-.74,1.79-.04.7-.29,1.32-.57,1.3-.35-.02-2.22,1.84-4.32,4.11-5.42,5.87-10.27,10.05-16.28,13.68-2.03,1.23-4.6,2.9-5.71,3.75-1.17.78-3.78,2.18-5.81,3.04-2.08.88-5.55,2.35-7.72,3.35-2.17,1-4.4,1.78-4.82,1.83-.49-.03-.93.23-.95.65-.02.35-.6.67-1.3.63-.7-.04-2.73.74-4.53,1.7-1.75.94-3.97,1.81-4.96,1.75-.92.02-2.41.28-3.2.66-5.26,2.08-8.41,3.1-9.46,3.03-.7-.04-2.06.52-3.1,1.23-1.16.79-2.96,1.23-4.78,1.13-1.68-.1-3.03.1-3.05.38-.02.35-1.16.57-2.56.55-1.41-.01-2.9.18-3.41.5-.44.33-2.21.54-3.97.54-1.76,0-3.54.28-3.9.55-.81.58-2.51.96-9.24,1.64-2.33.23-5.18.67-6.39.96-1.14.28-3.83.52-5.88.64-2.12.13-5.3.5-7.08.78-1.77.28-3.67.27-4.15.04-.54-.26-1.61-.09-2.4.21-.73.38-4.61.65-8.55.63-4.01-.02-9.29.12-11.84.29-2.54.17-5.22.26-6,.28-14.38-.7-36.01-1.4-36.79-1.31-1.42.27-3.18-3.73-1.92-4.4.86-.46,1.58-2.8,3.49-10.35.53-2.08,1.37-4.43,1.85-5.17,1.63-2.47,2.09-23.53.46-24.67-.34-.23-.57-1.02-.53-1.72.14-2.45-1.72-8.04-3.96-11.7-4.45-7.28-17.78-18.42-22.47-18.69-.7-.04-1.32-.36-1.3-.71.08-1.33-15.98-4.64-25.03-5.05-4.07-.19-8-.38-8.77-.44-8.62-.71-22.28-.55-24.1.77-.44.32-.86.3-1.05-.13-.12-.36-1.73-.54-4.06-.31-2.13.21-6.44.57-9.55.85-3.12.28-6.02.77-6.54,1.17-.51.32-1.22.42-1.7.11-.4-.31-1.46-.3-2.26.08-.86.3-5.92,1.31-11.17,2.23-5.27.93-18.42,3.43-18.85,3.54-.35.05-1.5.4-2.5.7-1.01.36-2.93.81-4.28,1.02-1.35.2-2.78.61-3.22.87-.88.58-8.68,2.94-10.74,3.24-.78.17-2.34.37-3.55.57-2.69.44-8.27,3.1-8.33,4.09-.02.42-.31.54-.58.32-.61-.46-7.23.91-10.47,2.13-6.76,2.55-11.87,4.44-14.39,5.42-1.58.61-4.33,1.79-6.14,2.74-1.81.95-3.47,1.56-3.74,1.47-.28-.09-1.78.38-3.22,1.01-7.09,3.07-9.57,3.72-10.73,2.96-1.42-.94-13.85-4.97-17.81-5.75-1.53-.3-3.32-.84-4-1.29-.6-.4-1.52-.51-1.88-.32-.36.19-.78.03-.97-.34-.19-.36-1.57-.91-2.95-1.23-1.46-.34-4.27-1.41-6.27-2.27-1.98-.85-4.62-1.61-5.88-1.68-1.26-.07-2.57-.44-2.91-.8-.78-.84-8.11-3.38-11.37-4.04-1.32-.27-2.7-.79-3.1-1.17-.33-.37-1.23-.7-2.07-.75-.77-.05-2.77-.72-4.49-1.46-1.72-.73-4.33-1.61-5.86-2.03-6.01-1.68-11.81-3.59-13.65-4.74-1.01-.63-2.88-1.27-3.99-1.5-1.19-.25-2.56-.78-2.96-1.16-.47-.45-2.19-1.05-3.86-1.35-3.62-.65-5.18-1.86-4.04-3.05.45-.47,2.69-1.53,5.07-2.45,2.38-.92,4.47-1.92,4.7-2.26.3-.41.95-.65,1.58-.61.63.04,1.71-.32,2.3-.85.66-.52,2.9-1.67,5.01-2.59,2.01-.88,3.77-1.96,3.8-2.38.02-.35.45-.54,1-.29.55.24,2.48-.35,4.3-1.37s3.34-1.7,3.32-1.42c-.01.21.56-.04,1.3-.63.66-.53,3.35-1.91,5.94-2.96,2.59-1.04,7.28-3.19,10.48-4.73,3.17-1.53,6.93-3.28,8.32-3.88,1.36-.58,2.68-1.25,2.77-1.6.16-.27.66-.45,1.15-.43.49.03,2.32-.74,4.11-1.73,1.77-.98,4.7-2.36,6.57-2.92,1.85-.56,3.81-1.47,4.34-2,.45-.54,2.84-1.82,5.23-2.79,2.44-1,7.65-3.28,11.63-5.16,7.16-3.38,36.34-16.31,39.5-17.46.87-.37,17.82-7.78,22.59-9.79,4.75-2,9.17-4.04,9.83-4.56.66-.52,1.46-.9,1.8-.74.35.09,3.79-1.11,7.62-2.72,3.82-1.61,7.41-2.87,7.9-2.84.56.03,2.07-.81,3.49-1.91,1.38-1.06,2.99-1.86,3.49-1.91.49.03,1.43-.18,2.14-.51,1.83-.84,4.02-1.45,4.65-1.28,1.38.38,4.82-1.9,4.9-3.23.07-1.26.37-1.41,1.88-.95,1.87.57,10.16-1.64,16.01-4.27,1.37-.62,3.82-1.54,5.39-2.01,8.16-2.42,16.77-5.13,19.35-6.11,1.59-.6,3.51-1.12,4.29-1.23.71-.09,2.07-.58,2.87-1.03.8-.45,2.94-1.03,4.64-1.21,1.77-.18,5.11-1,7.49-1.81,2.36-.81,5.08-1.46,6.07-1.54.99-.08,3.62-.71,5.85-1.42,2.29-.72,4.36-1.15,4.7-.99.27.23,2.26-.08,4.4-.73,2.15-.65,4.35-.94,4.82-.7s1.62.02,2.48-.35c.87-.44,2.09-.85,2.66-.9,2.76-.22,8.26-.43,9.66-.35.84.05,1.77-.25,2-.59.23-.41,1.51-.62,2.85-.54,1.33.08,2.54-.13,2.77-.4.16-.27,1.58-.51,3.06-.52,1.48-.02,4.31-.4,6.24-.83,4.12-.92,8.65-1.08,20.81-.89,15.11.23,19.13.13,19.42-.06.15-.13,1.41-.02,2.87.17,1.46.19,3.92.4,5.46.46,3.93.16,18.64,2.44,28.86,4.57,4.73.99,8.91,1.65,9.2,1.45,1.01-.5,9.31,1.64,11.71,3.01,1.28.73,4.06,1.54,6.23,1.77,2.1.23,4.46.76,5.21,1.15,5.18,2.71,7.11,3.5,14.08,5.89,1.72.59,3.37,1.33,3.77,1.7.33.3,1.23.63,2.07.68.84.05,2.06.56,2.75,1.15.72.62,1.63.94,2.07.75.5-.11,1.25.28,1.7.94.46.59,1.48,1.14,2.39,1.2.84.05,2.21.76,3.07,1.59.87.82,2.36,1.76,3.33,2.02.97.2,2.76,1.01,3.84,1.7,1.16.63,3.26,1.95,4.76,2.81,1.5.86,3.19,2.02,3.72,2.54.54.45,2.56,1.85,4.4,3,1.89,1.18,4.31,3.08,5.38,4.25,1.11,1.21,2.33,2.18,2.62,2.19,2.03.12,20.14,20.3,22.13,24.65,1.32,2.89,2.24,4.78,5.58,11.58,2.57,5.22,6.06,19.35,6.37,25.77.46,9.38-1.23,22.66-3.21,25.98Z"/>
  </g>
</svg>