<svg width="401" height="76" viewBox="0 0 401 76" fill="none" xmlns="http://www.w3.org/2000/svg">
<path d="M42.9141 28.4766V37.1719C41.5391 37.1719 40.6328 37.3984 40.1953 37.8516C39.7734 38.3047 39.5625 38.9609 39.5625 39.8203V63H25.4766L13.2422 43.8516V51.9609C13.2422 52.9766 13.5391 53.625 14.1328 53.9062C14.7266 54.1719 15.7109 54.3047 17.0859 54.3047V63H0.960938V54.3047C2.33594 54.3047 3.32031 54.125 3.91406 53.7656C4.50781 53.3906 4.80469 52.6953 4.80469 51.6797V39.8203C4.80469 38.7891 4.50781 38.0938 3.91406 37.7344C3.32031 37.3594 2.33594 37.1719 0.960938 37.1719V28.4766H19.3828L31.1016 46.8281V39.8203C31.1016 38.7891 30.8828 38.0938 30.4453 37.7344C30.0234 37.3594 29.125 37.1719 27.75 37.1719V28.4766H42.9141ZM57.75 51.5391C57.8125 53.8672 58.25 55.4766 59.0625 56.3672C59.8906 57.2422 61.0703 57.6797 62.6016 57.6797C63.1172 57.6797 63.6172 57.6094 64.1016 57.4688C64.6016 57.3125 65.0625 57.0703 65.4844 56.7422C65.9062 56.3984 66.2656 55.9531 66.5625 55.4062C66.875 54.8438 67.0781 54.1406 67.1719 53.2969H75.7031C75.3906 55.3125 74.8125 57 73.9688 58.3594C73.1406 59.7188 72.0703 60.8203 70.7578 61.6641C69.4453 62.4922 67.9141 63.0859 66.1641 63.4453C64.4297 63.8203 62.4922 64.0078 60.3516 64.0078C58.1484 64.0078 56.0781 63.7266 54.1406 63.1641C52.2031 62.6016 50.5 61.75 49.0312 60.6094C47.5781 59.4531 46.4375 58.0078 45.6094 56.2734C44.7812 54.5234 44.3672 52.4453 44.3672 50.0391C44.3672 47.7422 44.7578 45.7266 45.5391 43.9922C46.3203 42.2578 47.4141 40.8125 48.8203 39.6562C50.2422 38.4844 51.9141 37.6016 53.8359 37.0078C55.7734 36.4141 57.8984 36.1172 60.2109 36.1172C63.0547 36.1172 65.5 36.4922 67.5469 37.2422C69.5938 37.9922 71.2656 39.0391 72.5625 40.3828C73.8594 41.7266 74.8125 43.3438 75.4219 45.2344C76.0312 47.125 76.3203 49.2266 76.2891 51.5391H57.75ZM61.2188 42.4453C60.125 42.4453 59.3125 42.8359 58.7812 43.6172C58.2656 44.3828 57.9219 45.6562 57.75 47.4375H64.6172C64.5234 45.9062 64.1953 44.6953 63.6328 43.8047C63.0703 42.8984 62.2656 42.4453 61.2188 42.4453ZM101.719 55.5703L98.9062 63H86.6484L80.8594 47.8828C80.5625 47.1484 80.2031 46.6328 79.7812 46.3359C79.375 46.0234 78.7031 45.8672 77.7656 45.8672V37.1719H95.1562V45.8672C94.4219 45.8672 93.9375 46.0078 93.7031 46.2891C93.4844 46.5547 93.4531 47.0078 93.6094 47.6484L95.6719 54.8438H96.0234L98.2266 47.6484C98.6172 46.4609 98.1016 45.8672 96.6797 45.8672V37.1719H112.617V45.8672C111.883 45.8672 111.406 46.0078 111.188 46.2891C110.969 46.5547 110.938 47.0078 111.094 47.6484L113.156 54.8438H113.484L115.688 47.6484C116.078 46.4609 115.57 45.8672 114.164 45.8672V37.1719H126.07V45.8672C125.398 45.8672 124.812 46.0234 124.312 46.3359C123.812 46.6328 123.422 47.1484 123.141 47.8828L117.328 63H104.602L101.719 55.5703ZM140.906 51.5391C140.969 53.8672 141.406 55.4766 142.219 56.3672C143.047 57.2422 144.227 57.6797 145.758 57.6797C146.273 57.6797 146.773 57.6094 147.258 57.4688C147.758 57.3125 148.219 57.0703 148.641 56.7422C149.062 56.3984 149.422 55.9531 149.719 55.4062C150.031 54.8438 150.234 54.1406 150.328 53.2969H158.859C158.547 55.3125 157.969 57 157.125 58.3594C156.297 59.7188 155.227 60.8203 153.914 61.6641C152.602 62.4922 151.07 63.0859 149.32 63.4453C147.586 63.8203 145.648 64.0078 143.508 64.0078C141.305 64.0078 139.234 63.7266 137.297 63.1641C135.359 62.6016 133.656 61.75 132.188 60.6094C130.734 59.4531 129.594 58.0078 128.766 56.2734C127.938 54.5234 127.523 52.4453 127.523 50.0391C127.523 47.7422 127.914 45.7266 128.695 43.9922C129.477 42.2578 130.57 40.8125 131.977 39.6562C133.398 38.4844 135.07 37.6016 136.992 37.0078C138.93 36.4141 141.055 36.1172 143.367 36.1172C146.211 36.1172 148.656 36.4922 150.703 37.2422C152.75 37.9922 154.422 39.0391 155.719 40.3828C157.016 41.7266 157.969 43.3438 158.578 45.2344C159.188 47.125 159.477 49.2266 159.445 51.5391H140.906ZM144.375 42.4453C143.281 42.4453 142.469 42.8359 141.938 43.6172C141.422 44.3828 141.078 45.6562 140.906 47.4375H147.773C147.68 45.9062 147.352 44.6953 146.789 43.8047C146.227 42.8984 145.422 42.4453 144.375 42.4453ZM188.977 45.7266H182.531C182.078 44.6016 181.375 43.7109 180.422 43.0547C179.469 42.3984 178.477 42.0703 177.445 42.0703C176.742 42.0703 176.18 42.2031 175.758 42.4688C175.352 42.7188 175.148 43.1016 175.148 43.6172C175.148 44.2578 175.508 44.7422 176.227 45.0703C176.945 45.3828 177.844 45.6641 178.922 45.9141C180.016 46.1641 181.195 46.4688 182.461 46.8281C183.727 47.1719 184.898 47.6719 185.977 48.3281C187.07 48.9844 187.977 49.8672 188.695 50.9766C189.414 52.0859 189.773 53.5469 189.773 55.3594C189.773 56.7656 189.461 57.9922 188.836 59.0391C188.211 60.0859 187.352 60.9453 186.258 61.6172C185.18 62.2891 183.906 62.7891 182.438 63.1172C180.969 63.4609 179.383 63.6328 177.68 63.6328C176.023 63.6328 174.453 63.4688 172.969 63.1406C171.5 62.8281 170.094 62.2891 168.75 61.5234L168.516 63.1406H162.328V53.7422H168.75C169.359 54.9922 170.125 55.9609 171.047 56.6484C171.984 57.3359 173.016 57.6797 174.141 57.6797C175 57.6797 175.609 57.5234 175.969 57.2109C176.344 56.8828 176.531 56.5234 176.531 56.1328C176.531 55.4922 176.172 55 175.453 54.6562C174.734 54.2969 173.844 53.9844 172.781 53.7188C171.734 53.4375 170.578 53.1328 169.312 52.8047C168.047 52.4609 166.883 51.9688 165.82 51.3281C164.773 50.6875 163.891 49.8281 163.172 48.75C162.453 47.6562 162.094 46.2266 162.094 44.4609C162.094 43.1953 162.375 42.0391 162.938 40.9922C163.516 39.9453 164.336 39.0625 165.398 38.3438C166.461 37.625 167.711 37.0781 169.148 36.7031C170.586 36.3125 172.164 36.1172 173.883 36.1172C175.805 36.1172 177.531 36.3359 179.062 36.7734C180.609 37.1953 181.766 37.6641 182.531 38.1797L182.766 36.5156H188.977V45.7266ZM208.43 28.4766V37.1719H215.438V45.8672H208.43V53.0625C208.43 54.0938 208.57 54.9375 208.852 55.5938C209.148 56.25 209.75 56.5781 210.656 56.5781C211.156 56.5781 211.555 56.4844 211.852 56.2969C212.164 56.0938 212.406 55.8359 212.578 55.5234C212.766 55.1953 212.883 54.8281 212.93 54.4219C212.977 54 213 53.5469 213 53.0625V49.5703H215.695V53.3438C215.695 54.8594 215.531 56.2734 215.203 57.5859C214.891 58.8984 214.344 60.0312 213.562 60.9844C212.797 61.9375 211.75 62.6953 210.422 63.2578C209.094 63.8203 207.422 64.1016 205.406 64.1016C203.172 64.1016 201.391 63.8281 200.062 63.2812C198.734 62.7344 197.727 61.9844 197.039 61.0312C196.352 60.0781 195.898 58.9453 195.68 57.6328C195.477 56.3203 195.375 54.8906 195.375 53.3438V45.8672H191.695V38.1328C192.867 38.1328 193.953 37.8828 194.953 37.3828C195.969 36.8672 196.836 36.1641 197.555 35.2734C198.289 34.3672 198.852 33.3359 199.242 32.1797C199.648 31.0234 199.852 29.7891 199.852 28.4766H208.43ZM249.211 50.2734V51.6797C249.211 52.5078 249.414 53.1562 249.82 53.625C250.242 54.0781 251 54.3047 252.094 54.3047H254.484V63H231.539V54.3047C232.914 54.3047 233.898 54.125 234.492 53.7656C235.086 53.3906 235.383 52.6953 235.383 51.6797V39.8203C235.383 38.7891 235.086 38.0938 234.492 37.7344C233.898 37.3594 232.914 37.1719 231.539 37.1719V28.4766H256.828C259.141 28.4766 261.078 28.75 262.641 29.2969C264.203 29.8438 265.453 30.6094 266.391 31.5938C267.344 32.5625 268.016 33.7422 268.406 35.1328C268.812 36.5234 269.016 38.0547 269.016 39.7266C269.016 41.4141 268.812 42.9062 268.406 44.2031C268.016 45.5 267.344 46.6094 266.391 47.5312C265.453 48.4375 264.203 49.125 262.641 49.5938C261.078 50.0469 259.141 50.2734 256.828 50.2734H249.211ZM249.211 44.7188H251.742C253.055 44.7188 253.961 44.375 254.461 43.6875C254.961 43 255.211 42.0938 255.211 40.9688C255.211 39.9062 254.961 39.0078 254.461 38.2734C253.961 37.5391 253.055 37.1719 251.742 37.1719H249.211V44.7188ZM270.258 50.0391C270.258 47.7422 270.656 45.7266 271.453 43.9922C272.25 42.2578 273.383 40.8125 274.852 39.6562C276.336 38.4844 278.117 37.6016 280.195 37.0078C282.273 36.4141 284.594 36.1172 287.156 36.1172C289.719 36.1172 292.039 36.4141 294.117 37.0078C296.195 37.6016 297.969 38.4844 299.438 39.6562C300.906 40.8125 302.039 42.2578 302.836 43.9922C303.648 45.7266 304.055 47.7422 304.055 50.0391C304.055 52.3047 303.648 54.3125 302.836 56.0625C302.039 57.8125 300.906 59.2812 299.438 60.4688C297.969 61.6406 296.195 62.5234 294.117 63.1172C292.039 63.7109 289.719 64.0078 287.156 64.0078C284.594 64.0078 282.273 63.7109 280.195 63.1172C278.117 62.5234 276.336 61.6406 274.852 60.4688C273.383 59.2812 272.25 57.8125 271.453 56.0625C270.656 54.3125 270.258 52.3047 270.258 50.0391ZM283.594 50.0391C283.594 51.3516 283.648 52.4688 283.758 53.3906C283.883 54.2969 284.078 55.0312 284.344 55.5938C284.609 56.1406 284.969 56.5469 285.422 56.8125C285.875 57.0625 286.453 57.1875 287.156 57.1875C287.859 57.1875 288.43 57.0625 288.867 56.8125C289.32 56.5469 289.68 56.1406 289.945 55.5938C290.227 55.0312 290.422 54.2969 290.531 53.3906C290.641 52.4688 290.695 51.3516 290.695 50.0391C290.695 47.4141 290.445 45.5781 289.945 44.5312C289.461 43.4688 288.531 42.9375 287.156 42.9375C286.453 42.9375 285.875 43.0625 285.422 43.3125C284.969 43.5469 284.609 43.9453 284.344 44.5078C284.078 45.0547 283.883 45.7891 283.758 46.7109C283.648 47.6172 283.594 48.7266 283.594 50.0391ZM333.539 45.7266H327.094C326.641 44.6016 325.938 43.7109 324.984 43.0547C324.031 42.3984 323.039 42.0703 322.008 42.0703C321.305 42.0703 320.742 42.2031 320.32 42.4688C319.914 42.7188 319.711 43.1016 319.711 43.6172C319.711 44.2578 320.07 44.7422 320.789 45.0703C321.508 45.3828 322.406 45.6641 323.484 45.9141C324.578 46.1641 325.758 46.4688 327.023 46.8281C328.289 47.1719 329.461 47.6719 330.539 48.3281C331.633 48.9844 332.539 49.8672 333.258 50.9766C333.977 52.0859 334.336 53.5469 334.336 55.3594C334.336 56.7656 334.023 57.9922 333.398 59.0391C332.773 60.0859 331.914 60.9453 330.82 61.6172C329.742 62.2891 328.469 62.7891 327 63.1172C325.531 63.4609 323.945 63.6328 322.242 63.6328C320.586 63.6328 319.016 63.4688 317.531 63.1406C316.062 62.8281 314.656 62.2891 313.312 61.5234L313.078 63.1406H306.891V53.7422H313.312C313.922 54.9922 314.688 55.9609 315.609 56.6484C316.547 57.3359 317.578 57.6797 318.703 57.6797C319.562 57.6797 320.172 57.5234 320.531 57.2109C320.906 56.8828 321.094 56.5234 321.094 56.1328C321.094 55.4922 320.734 55 320.016 54.6562C319.297 54.2969 318.406 53.9844 317.344 53.7188C316.297 53.4375 315.141 53.1328 313.875 52.8047C312.609 52.4609 311.445 51.9688 310.383 51.3281C309.336 50.6875 308.453 49.8281 307.734 48.75C307.016 47.6562 306.656 46.2266 306.656 44.4609C306.656 43.1953 306.938 42.0391 307.5 40.9922C308.078 39.9453 308.898 39.0625 309.961 38.3438C311.023 37.625 312.273 37.0781 313.711 36.7031C315.148 36.3125 316.727 36.1172 318.445 36.1172C320.367 36.1172 322.094 36.3359 323.625 36.7734C325.172 37.1953 326.328 37.6641 327.094 38.1797L327.328 36.5156H333.539V45.7266ZM352.992 28.4766V37.1719H360V45.8672H352.992V53.0625C352.992 54.0938 353.133 54.9375 353.414 55.5938C353.711 56.25 354.312 56.5781 355.219 56.5781C355.719 56.5781 356.117 56.4844 356.414 56.2969C356.727 56.0938 356.969 55.8359 357.141 55.5234C357.328 55.1953 357.445 54.8281 357.492 54.4219C357.539 54 357.562 53.5469 357.562 53.0625V49.5703H360.258V53.3438C360.258 54.8594 360.094 56.2734 359.766 57.5859C359.453 58.8984 358.906 60.0312 358.125 60.9844C357.359 61.9375 356.312 62.6953 354.984 63.2578C353.656 63.8203 351.984 64.1016 349.969 64.1016C347.734 64.1016 345.953 63.8281 344.625 63.2812C343.297 62.7344 342.289 61.9844 341.602 61.0312C340.914 60.0781 340.461 58.9453 340.242 57.6328C340.039 56.3203 339.938 54.8906 339.938 53.3438V45.8672H336.258V38.1328C337.43 38.1328 338.516 37.8828 339.516 37.3828C340.531 36.8672 341.398 36.1641 342.117 35.2734C342.852 34.3672 343.414 33.3359 343.805 32.1797C344.211 31.0234 344.414 29.7891 344.414 28.4766H352.992Z" fill="#333333"/>
<path d="M372.667 21.6665C372.667 22.587 371.921 23.3332 371.001 23.3332C370.08 23.3332 369.334 22.587 369.334 21.6665L369.334 8.33317C369.334 7.4127 370.08 6.6665 371.001 6.6665C371.921 6.6665 372.667 7.4127 372.667 8.33317L372.667 21.6665ZM390.513 10.488C391.113 11.0888 391.16 12.0342 390.651 12.688L390.513 12.845L378.846 24.5117C378.195 25.1625 377.14 25.1625 376.489 24.5117C375.888 23.9109 375.842 22.9655 376.35 22.3117L376.489 22.1547L388.155 10.488C388.806 9.83712 389.862 9.83712 390.513 10.488ZM394.334 29.9998C394.334 30.9203 393.588 31.6665 392.667 31.6665L379.334 31.6665C378.413 31.6665 377.667 30.9203 377.667 29.9998C377.667 29.0793 378.413 28.3332 379.334 28.3332L392.667 28.3332C393.588 28.3332 394.334 29.0793 394.334 29.9998Z" fill="#333333"/>
</svg>
