<svg width="25" height="33" viewBox="0 0 25 33" fill="none" xmlns="http://www.w3.org/2000/svg">
<path d="M1.70898 21.0417C1.70898 23.9038 2.84603 26.6489 4.86985 28.6726C6.89369 30.6965 9.63855 31.8332 12.5007 31.8332C15.3628 31.8332 18.1077 30.6965 20.1316 28.6726C22.1553 26.6489 23.2923 23.9038 23.2923 21.0417V11.7917C23.2923 8.92953 22.1553 6.1847 20.1316 4.16086C18.1077 2.13704 15.3628 1 12.5007 1C9.63855 1 6.89369 2.13704 4.86985 4.16086C2.84603 6.1847 1.70898 8.92953 1.70898 11.7917V21.0417Z" stroke="#333333" stroke-width="2" stroke-linecap="round" stroke-linejoin="round"/>
<path d="M12.5 7.16699V19.5003" stroke="#333333" stroke-width="2" stroke-linecap="round" stroke-linejoin="round"/>
<path d="M17.125 14.875L12.5 19.5L7.875 14.875" stroke="#333333" stroke-width="2" stroke-linecap="round" stroke-linejoin="round"/>
</svg>
